<?xml version="1.0" encoding="UTF-8" standalone="no"?>
<!DOCTYPE svg PUBLIC "-//W3C//DTD SVG 1.1//EN" "http://www.w3.org/Graphics/SVG/1.1/DTD/svg11.dtd">
<svg xmlns="http://www.w3.org/2000/svg" version="1.1" viewBox="0.00 0.00 500.00 500.00">
<g stroke-width="1.50" fill="none" stroke-linecap="butt">
<path stroke="#e6cd9a" vector-effect="non-scaling-stroke" d="
  M 260.85 56.30
  C 262.07 55.55 263.57 55.37 264.93 55.82
  C 272.22 58.26 273.10 66.67 267.78 71.56
  C 264.90 74.21 262.01 75.81 259.11 76.34
  C 251.16 77.81 244.17 74.60 239.94 67.61
  C 237.47 63.52 237.66 57.96 234.94 53.81
  C 232.93 50.75 229.96 48.56 226.03 47.24
  C 218.12 44.58 211.36 45.68 205.73 50.53
  C 198.82 56.49 194.79 69.71 184.17 66.30
  C 182.26 65.69 180.21 64.80 178.02 63.63
  C 177.39 63.29 176.63 63.79 176.69 64.51
  C 177.03 68.41 180.30 72.13 183.48 74.22
  C 190.54 78.87 200.42 76.68 205.99 70.77
  C 208.66 67.93 214.58 60.58 218.08 62.94
  C 219.36 63.79 221.97 66.48 220.57 68.43
  C 219.52 69.90 217.89 70.62 215.68 70.57
  C 215.26 70.56 214.93 70.91 214.97 71.33
  C 216.37 85.82 231.67 92.77 243.98 85.91
  C 244.51 85.62 245.17 85.69 245.63 86.09
  C 250.89 90.73 257.17 92.33 264.47 90.90
  C 269.80 89.85 273.82 87.28 278.60 83.85
  C 283.66 80.23 289.55 78.54 293.15 85.33
  C 294.15 87.21 294.70 88.25 294.81 88.45
  C 294.96 88.73 295.26 88.91 295.58 88.91
  L 308.78 88.91
  C 309.36 88.91 309.86 88.48 309.93 87.90
  C 310.36 84.54 310.04 80.95 308.95 77.14
  C 306.25 67.70 297.12 63.46 287.68 65.46
  C 287.26 65.54 286.89 65.20 286.93 64.78
  C 287.62 57.95 287.24 50.80 281.37 46.02
  C 272.81 39.05 263.62 38.12 253.81 43.25
  C 246.27 47.20 242.05 57.12 244.67 65.21
  C 245.79 68.66 248.35 70.89 252.34 71.92
  C 257.08 73.13 264.20 71.76 264.97 65.95
  C 265.50 61.94 263.58 59.70 259.21 59.23
  C 258.35 59.14 258.09 58.01 258.83 57.55
  L 260.85 56.30"
/>
<path stroke="#e6cd9a" vector-effect="non-scaling-stroke" d="
  M 238.53 205.62
  C 241.34 184.05 220.84 168.24 200.55 173.48
  C 189.22 176.41 181.02 184.68 178.34 196.26
  C 176.09 205.94 178.72 217.41 185.85 224.60
  C 191.69 230.49 199.34 234.44 207.87 234.39
  C 212.16 234.36 215.81 233.76 218.80 232.59
  C 227.81 229.08 233.98 222.62 237.31 213.23"
/>
<path stroke="#8a9ba6" vector-effect="non-scaling-stroke" d="
  M 237.31 213.23
  C 247.86 212.88 259.75 213.06 273.00 213.76
  C 276.42 213.95 279.50 212.47 281.52 209.24
  C 286.29 201.61 292.17 196.42 301.51 196.26
  C 312.45 196.08 321.03 204.36 322.56 214.89
  C 323.30 220.02 322.64 225.01 320.57 229.84
  C 320.25 230.60 320.81 231.44 321.63 231.44
  L 368.93 231.44
  C 369.62 231.44 370.13 230.79 369.96 230.11
  C 369.79 229.42 369.50 228.86 369.09 228.42
  C 353.06 211.27 338.71 196.13 326.02 183.02
  C 325.75 182.74 325.74 182.29 325.99 182.00
  C 332.13 174.94 335.28 168.83 335.14 159.16
  C 335.05 152.37 335.04 147.23 335.13 143.74
  C 335.14 143.29 335.47 142.26 336.12 140.65
  C 336.26 140.32 336.30 139.95 336.25 139.60
  C 335.83 136.73 334.07 135.22 330.97 135.05
  C 327.96 134.89 321.99 134.82 313.05 134.83
  C 309.79 134.83 308.46 133.36 309.06 130.43
  C 311.05 120.72 312.72 112.46 314.07 105.63
  C 314.14 105.26 314.46 105.00 314.83 105.00
  C 319.21 105.04 320.08 99.88 319.60 96.42
  C 319.41 95.07 318.49 94.39 316.84 94.38
  C 304.96 94.31 294.25 94.32 284.70 94.40
  C 284.28 94.40 283.88 94.60 283.63 94.94
  C 280.99 98.58 282.63 105.18 287.98 105.04
  C 288.56 105.02 289.07 105.44 289.17 106.01
  L 293.55 131.46
  C 293.72 132.43 293.22 133.40 292.33 133.84
  C 291.10 134.44 289.47 134.92 287.94 134.90
  C 281.83 134.82 275.33 134.82 268.46 134.90
  C 268.15 134.91 267.89 134.64 267.91 134.33
  C 268.04 132.00 268.14 128.84 268.20 124.83
  C 268.32 117.30 266.09 112.57 258.35 112.37
  C 253.78 112.25 249.44 111.98 245.39 114.06
  C 245.02 114.25 244.70 114.52 244.45 114.85
  C 242.87 116.92 242.02 119.36 241.90 122.15
  C 241.75 125.88 241.80 129.99 242.06 134.49
  C 242.08 134.72 241.89 134.92 241.65 134.92
  L 219.71 134.92
  C 219.41 134.92 219.17 134.68 219.17 134.38
  L 219.17 113.08
  C 219.17 112.74 219.34 112.43 219.62 112.26
  C 221.29 111.20 222.29 110.35 222.61 109.72
  C 224.10 106.77 223.35 104.53 220.34 102.99
  C 220.16 102.90 219.97 102.86 219.78 102.85
  L 148.27 102.45
  C 147.43 102.44 146.75 103.12 146.75 103.96
  L 146.75 114.66
  C 146.75 115.30 147.28 115.82 147.93 115.81
  C 156.06 115.69 166.53 114.24 166.55 125.99
  C 166.62 166.58 166.65 188.31 166.66 191.18
  C 166.66 191.45 166.45 191.66 166.18 191.66
  L 154.72 191.66
  C 154.35 191.66 154.05 191.96 154.04 192.34
  C 153.97 198.72 153.99 202.66 154.10 204.16
  C 154.15 204.87 154.71 205.79 155.79 206.91
  C 156.05 207.18 156.40 207.33 156.78 207.33
  L 169.14 207.33
  C 169.80 207.33 170.35 206.81 170.38 206.15
  C 170.84 196.70 171.93 188.40 177.76 180.82
  C 182.94 174.09 189.34 169.52 196.96 167.12
  C 216.93 160.83 238.49 171.96 244.48 192.44
  C 245.50 195.94 246.05 198.83 246.13 201.11
  C 246.14 201.34 246.32 201.52 246.55 201.52
  L 275.49 201.52
  C 275.83 201.52 276.05 201.87 275.92 202.18
  C 274.62 205.21 271.18 205.65 268.00 205.71
  C 258.19 205.88 248.36 205.85 238.53 205.62"
/>
<path stroke="#716940" vector-effect="non-scaling-stroke" d="
  M 237.31 213.23
  C 227.53 212.80 218.00 212.05 208.72 210.98
  C 205.49 210.61 203.73 208.83 203.45 205.65
  C 203.18 202.60 204.35 200.35 206.98 198.92
  C 209.25 197.68 211.71 199.17 213.52 201.47
  C 214.73 203.01 216.20 203.99 217.93 204.40
  C 224.20 205.90 231.06 206.31 238.53 205.62"
/>
<path stroke="#e6cd9a" vector-effect="non-scaling-stroke" d="
  M 316.82 218.37
  C 316.82 209.79 309.87 202.84 301.29 202.84
  C 292.71 202.84 285.76 209.79 285.76 218.37
  C 285.76 226.95 292.71 233.90 301.29 233.90
  C 309.87 233.90 316.82 226.95 316.82 218.37"
/>
<path stroke="#9ed1d2" vector-effect="non-scaling-stroke" d="
  M 119.67 227.65
  C 128.49 234.60 138.65 231.90 150.03 228.98
  C 153.69 228.04 156.38 227.57 159.69 228.59
  C 166.95 230.80 175.23 233.09 182.30 230.70
  C 182.48 230.64 182.49 230.39 182.31 230.32
  L 178.35 228.91
  C 178.29 228.89 178.23 228.86 178.17 228.82
  C 174.60 226.43 172.01 224.79 170.38 223.88
  C 161.42 218.91 152.29 218.22 143.00 221.81
  C 135.01 224.90 129.19 228.12 119.93 227.01
  C 119.57 226.97 119.39 227.43 119.67 227.65"
/>
<path stroke="#9ed1d2" vector-effect="non-scaling-stroke" d="
  M 235.93 230.85
  C 239.75 233.13 245.89 232.55 249.86 231.75
  C 255.20 230.68 259.37 230.29 263.81 231.23
  C 269.38 232.41 272.92 232.88 277.67 230.51
  C 278.02 230.34 277.97 229.83 277.59 229.73
  C 271.45 228.19 266.45 223.58 260.19 222.66
  C 253.96 221.74 248.45 222.88 243.03 226.47
  C 240.42 228.19 238.08 229.45 235.99 230.24
  C 235.72 230.34 235.69 230.70 235.93 230.85"
/>
<path stroke="#8a9ba6" vector-effect="non-scaling-stroke" d="
  M 431.11 268.79
  C 439.22 266.77 444.22 262.06 446.11 254.65
  C 446.97 251.30 446.79 248.45 445.58 246.11
  C 442.34 239.85 430.88 241.69 431.41 250.13
  C 431.60 253.26 433.67 255.25 437.60 256.10
  C 437.96 256.18 438.20 256.54 438.13 256.90
  C 437.22 261.59 434.76 264.71 430.77 266.26
  C 430.43 266.39 430.23 266.75 430.29 267.12
  L 430.51 268.40
  C 430.56 268.68 430.84 268.86 431.11 268.79"
/>
<path stroke="#8a9ba6" vector-effect="non-scaling-stroke" d="
  M 82.46 308.98
  C 90.24 308.99 94.13 308.99 94.16 308.99
  C 95.03 308.95 95.45 307.90 94.85 307.26
  C 94.19 306.57 93.52 306.02 92.85 305.62
  C 90.20 304.03 89.97 301.64 89.94 298.25
  C 89.90 293.95 89.93 278.76 90.02 252.69
  C 90.02 252.44 90.22 252.24 90.47 252.25
  C 93.27 252.26 98.27 251.92 101.35 253.82
  C 104.05 255.48 105.92 257.32 106.95 259.33
  C 108.04 261.46 108.73 262.72 109.00 263.12
  C 109.54 263.94 110.80 263.67 110.96 262.70
  C 111.01 262.40 111.00 262.01 110.93 261.52
  C 110.32 256.73 109.11 250.79 107.31 243.69
  C 107.16 243.08 106.43 242.83 105.93 243.22
  C 105.30 243.71 104.61 244.05 103.88 244.25
  C 103.69 244.30 103.49 244.33 103.29 244.35
  C 102.92 244.38 95.99 244.40 82.49 244.39
  C 69.00 244.39 62.06 244.37 61.70 244.33
  C 61.50 244.31 61.30 244.28 61.11 244.23
  C 60.37 244.03 59.69 243.69 59.06 243.20
  C 58.56 242.81 57.83 243.06 57.68 243.67
  C 55.87 250.77 54.66 256.71 54.04 261.49
  C 53.97 261.98 53.96 262.37 54.01 262.67
  C 54.17 263.64 55.43 263.91 55.97 263.10
  C 56.24 262.70 56.93 261.43 58.02 259.31
  C 59.06 257.30 60.93 255.46 63.63 253.80
  C 66.71 251.91 71.71 252.25 74.51 252.24
  C 74.76 252.24 74.96 252.44 74.96 252.68
  C 75.03 278.76 75.04 293.94 75.00 298.24
  C 74.97 301.63 74.73 304.02 72.08 305.61
  C 71.41 306.01 70.74 306.56 70.08 307.25
  C 69.48 307.88 69.90 308.94 70.77 308.98
  C 70.80 308.98 74.69 308.98 82.46 308.98"
/>
<path stroke="#8a9ba6" vector-effect="non-scaling-stroke" d="
  M 336.8523 242.6925
  C 318.63 241.35 302.73 255.65 301.3388 274.6173
  C 299.95 293.59 313.59 310.05 331.8077 311.3875
  C 350.03 312.73 365.93 298.43 367.3212 279.4627
  C 368.71 260.49 355.07 244.03 336.8523 242.6925"
/>
<path stroke="#8a9ba6" vector-effect="non-scaling-stroke" d="
  M 143.09 279.15
  C 146.64 279.15 149.86 279.16 152.75 279.16
  C 152.96 279.16 153.12 279.32 153.13 279.53
  C 153.25 286.58 153.30 292.99 153.29 298.75
  C 153.29 301.52 152.71 304.05 150.46 305.88
  C 149.65 306.54 149.04 307.20 148.63 307.86
  C 148.35 308.31 148.67 308.88 149.19 308.88
  L 172.38 308.88
  C 173.13 308.88 173.52 307.99 173.02 307.43
  C 172.40 306.74 171.42 305.81 170.09 304.62
  C 168.71 303.38 168.46 300.78 168.46 298.71
  C 168.42 275.94 168.44 260.69 168.51 252.97
  C 168.54 250.12 169.90 248.00 172.59 246.61
  C 173.70 246.03 173.30 244.35 172.05 244.35
  L 149.64 244.35
  C 148.69 244.35 148.25 245.53 148.97 246.16
  L 152.06 248.83
  C 152.08 248.85 152.10 248.87 152.12 248.90
  C 152.81 250.17 153.17 251.30 153.19 252.29
  C 153.30 256.74 153.32 262.63 153.27 269.94
  C 153.27 270.24 153.03 270.48 152.74 270.49
  C 151.78 270.53 148.56 270.55 143.09 270.55
  C 137.62 270.55 134.40 270.53 133.44 270.49
  C 133.15 270.48 132.91 270.24 132.91 269.94
  C 132.85 262.63 132.88 256.75 132.98 252.29
  C 133.00 251.30 133.36 250.17 134.05 248.90
  C 134.07 248.88 134.09 248.85 134.11 248.83
  L 137.20 246.16
  C 137.92 245.54 137.48 244.35 136.53 244.35
  L 114.12 244.36
  C 112.87 244.36 112.46 246.05 113.58 246.62
  C 116.27 248.01 117.63 250.13 117.66 252.98
  C 117.74 260.70 117.76 275.95 117.73 298.72
  C 117.73 300.79 117.48 303.39 116.10 304.63
  C 114.77 305.82 113.79 306.76 113.18 307.44
  C 112.67 308.00 113.07 308.89 113.82 308.89
  L 137.01 308.88
  C 137.53 308.88 137.84 308.31 137.57 307.86
  C 137.15 307.20 136.54 306.54 135.73 305.88
  C 133.48 304.05 132.90 301.52 132.90 298.75
  C 132.89 292.99 132.94 286.59 133.05 279.53
  C 133.06 279.33 133.23 279.16 133.43 279.17
  C 136.32 279.16 139.55 279.16 143.09 279.15"
/>
<path stroke="#8a9ba6" vector-effect="non-scaling-stroke" d="
  M 213.93 308.91
  L 237.43 308.91
  C 237.88 308.91 238.11 308.38 237.81 308.05
  C 235.52 305.59 233.68 304.96 232.45 301.06
  C 222.24 268.69 216.41 250.00 214.94 244.98
  C 214.84 244.64 214.52 244.40 214.16 244.40
  L 194.31 244.40
  C 193.21 244.40 192.80 245.83 193.73 246.42
  C 196.26 248.02 197.08 250.29 196.19 253.23
  C 189.17 276.23 184.38 292.01 181.83 300.57
  C 180.97 303.47 179.36 305.76 177.00 307.45
  C 176.33 307.93 176.66 308.99 177.49 308.99
  L 194.08 308.99
  C 194.90 308.99 195.28 307.98 194.66 307.44
  L 191.93 305.07
  C 191.77 304.93 191.66 304.75 191.60 304.54
  C 190.97 302.23 191.01 299.88 191.72 297.48
  C 191.94 296.74 192.55 294.88 193.55 291.90
  C 193.65 291.60 193.93 291.40 194.25 291.40
  L 213.20 291.40
  C 213.40 291.40 213.57 291.51 213.66 291.69
  C 215.01 294.65 215.99 297.57 216.60 300.45
  C 217.23 303.46 216.19 305.68 213.48 307.11
  C 212.60 307.58 212.93 308.91 213.93 308.91"
/>
<path stroke="#8a9ba6" vector-effect="non-scaling-stroke" d="
  M 282.15 282.35
  C 288.81 279.47 294.27 274.39 294.86 266.77
  C 295.51 258.20 291.46 249.56 283.04 246.69
  C 280.82 245.93 278.66 245.26 276.55 244.68
  C 276.40 244.63 276.24 244.61 276.09 244.61
  L 241.47 244.36
  C 240.62 244.36 240.24 245.41 240.89 245.95
  L 243.70 248.27
  C 244.08 248.58 244.35 249.01 244.47 249.50
  C 244.84 251.09 245.03 252.34 245.04 253.25
  C 245.07 256.94 245.07 272.45 245.06 299.76
  C 245.06 301.55 244.74 303.10 244.09 304.43
  C 244.04 304.52 243.99 304.60 243.92 304.67
  L 240.67 307.80
  C 240.27 308.19 240.54 308.87 241.10 308.87
  L 264.52 308.87
  C 265.10 308.87 265.48 308.26 265.23 307.73
  L 265.05 307.35
  C 264.93 307.09 264.74 306.88 264.50 306.72
  L 262.12 305.13
  C 260.92 304.32 260.20 302.97 260.20 301.53
  L 260.20 284.52
  C 260.20 284.18 260.47 283.89 260.81 283.86
  C 264.09 283.59 268.01 283.66 269.52 286.81
  C 271.35 290.66 272.75 293.56 273.72 295.52
  C 278.32 304.83 280.59 308.83 291.32 308.76
  C 295.70 308.73 298.29 308.71 299.08 308.68
  C 299.55 308.66 299.89 308.22 299.79 307.76
  C 299.72 307.43 299.48 307.14 299.07 306.91
  C 296.44 305.38 294.37 303.35 292.87 300.80
  C 289.53 295.16 285.88 289.27 281.91 283.14
  C 281.73 282.86 281.84 282.48 282.15 282.35"
/>
<path stroke="#8a9ba6" vector-effect="non-scaling-stroke" d="
  M 383.33 267.75
  C 391.96 279.54 401.19 292.29 411.00 305.99
  C 411.56 306.76 412.45 307.64 413.68 308.61
  C 413.96 308.84 414.32 308.96 414.68 308.96
  L 422.70 308.96
  C 423.05 308.96 423.33 308.68 423.34 308.32
  C 423.45 291.52 423.34 274.00 423.00 255.75
  C 422.97 253.68 423.34 250.49 424.74 249.14
  C 426.36 247.57 427.45 246.50 428.00 245.91
  C 428.48 245.40 428.12 244.56 427.42 244.56
  L 409.66 244.56
  C 408.69 244.56 408.35 245.85 409.19 246.34
  C 414.49 249.42 414.31 253.78 414.30 259.82
  C 414.30 262.68 414.32 270.91 414.35 284.51
  C 414.35 284.78 414.01 284.89 413.86 284.67
  C 406.07 273.34 397.74 261.27 388.85 248.45
  C 387.62 246.68 386.75 244.92 384.60 244.55
  C 384.35 244.51 382.63 244.49 379.43 244.49
  C 374.98 244.49 371.46 244.49 368.86 244.48
  C 367.87 244.48 367.46 245.76 368.28 246.32
  L 371.50 248.53
  C 371.85 248.77 372.15 249.08 372.38 249.45
  C 373.55 251.30 374.14 252.98 374.16 254.48
  C 374.39 271.97 374.37 287.21 374.11 300.19
  C 374.03 303.81 371.31 305.96 369.40 307.58
  C 369.01 307.91 369.00 308.26 369.36 308.64
  C 369.43 308.73 369.56 308.77 369.75 308.77
  C 372.80 308.80 378.74 308.83 387.57 308.84
  C 388.52 308.84 388.85 307.58 388.03 307.11
  L 385.38 305.58
  C 385.05 305.39 384.78 305.11 384.60 304.78
  C 383.58 302.92 383.06 300.91 383.03 298.74
  C 382.93 290.60 382.93 280.30 383.04 267.85
  C 383.04 267.69 383.24 267.62 383.33 267.75"
/>
<path stroke="#e6cd9a" vector-effect="non-scaling-stroke" d="
  M 343.35 332.97
  C 326.82 317.69 301.31 320.56 288.06 338.65
  C 276.87 353.92 280.08 377.10 295.35 388.41
  C 303.66 394.56 312.94 397.15 323.20 396.16
  C 346.22 393.94 359.54 371.09 353.35 349.38
  C 351.49 342.88 348.16 337.41 343.35 332.97"
/>
<path stroke="#e6cd9a" vector-effect="non-scaling-stroke" d="
  M 120.69 333.75
  C 126.64 333.56 132.56 333.98 136.34 338.96
  C 137.15 340.03 138.20 341.68 139.47 343.91
  C 140.10 345.00 141.75 344.70 141.96 343.46
  C 142.04 342.99 142.00 342.32 141.84 341.46
  C 140.77 335.65 139.61 330.01 138.36 324.55
  C 138.28 324.16 137.90 323.91 137.51 323.98
  L 133.89 324.60
  C 133.74 324.63 133.60 324.64 133.45 324.64
  C 119.57 324.71 106.09 324.72 93.00 324.69
  C 91.13 324.68 89.46 324.42 87.97 323.90
  C 87.31 323.67 86.60 324.08 86.46 324.76
  L 82.66 342.94
  C 82.54 343.51 82.84 344.08 83.38 344.31
  L 83.60 344.40
  C 84.25 344.66 84.99 344.35 85.24 343.70
  C 88.51 335.44 95.85 332.32 104.63 333.46
  C 104.96 333.51 105.20 333.79 105.20 334.12
  C 105.23 344.77 105.24 358.42 105.21 375.05
  C 105.20 381.16 105.90 385.95 99.63 388.83
  C 98.43 389.38 98.82 391.18 100.14 391.18
  L 125.19 391.18
  C 125.76 391.18 126.12 390.56 125.84 390.06
  C 125.44 389.35 124.79 388.69 123.90 388.06
  C 121.02 386.04 120.15 383.62 120.15 379.75
  C 120.16 349.48 120.17 334.33 120.18 334.28
  C 120.18 334.00 120.41 333.76 120.69 333.75"
/>
<path stroke="#e6cd9a" vector-effect="non-scaling-stroke" d="
  M 202.56 373.83
  C 201.92 373.16 200.83 373.22 200.26 373.95
  C 194.19 381.76 185.67 385.55 176.08 382.33
  C 169.56 380.14 164.62 374.67 162.90 368.09
  C 161.15 361.38 160.96 351.57 163.77 344.97
  C 166.11 339.47 170.40 333.77 176.28 332.28
  C 178.53 331.71 181.18 331.55 184.23 331.79
  C 191.76 332.37 196.00 339.76 200.03 346.71
  C 200.41 347.36 200.85 347.71 201.35 347.77
  C 202.16 347.87 202.87 347.21 202.88 346.36
  C 202.95 341.00 202.94 334.06 202.85 325.55
  C 202.84 324.72 201.93 324.23 201.23 324.66
  L 197.35 327.06
  C 197.06 327.24 196.69 327.27 196.36 327.13
  C 189.55 324.23 182.06 323.15 173.90 323.90
  C 163.35 324.86 154.43 332.61 149.28 341.43
  C 144.90 348.93 143.59 357.54 145.25 365.55
  C 147.54 376.62 156.29 387.87 167.56 391.41
  C 181.79 395.87 196.56 391.82 205.61 379.28
  C 206.15 378.53 206.08 377.49 205.44 376.82
  L 202.56 373.83"
/>
<path stroke="#e6cd9a" vector-effect="non-scaling-stroke" d="
  M 232.43 360.22
  L 254.11 360.22
  C 254.48 360.22 254.77 360.51 254.78 360.88
  C 254.85 373.25 254.83 380.37 254.74 382.23
  C 254.54 386.51 252.30 387.09 249.58 389.42
  C 248.88 390.02 249.31 391.17 250.23 391.17
  L 274.12 391.17
  C 274.92 391.17 275.33 390.20 274.77 389.63
  C 272.57 387.39 269.80 385.93 269.78 382.48
  C 269.65 357.71 269.66 341.47 269.82 333.76
  C 269.88 330.46 272.08 328.57 274.29 326.56
  C 274.82 326.07 274.48 325.19 273.76 325.19
  C 268.04 325.21 260.20 325.21 250.25 325.19
  C 249.93 325.18 249.68 325.28 249.50 325.49
  C 249.15 325.90 249.24 326.52 249.68 326.85
  C 253.01 329.30 254.45 330.37 254.64 334.82
  C 254.84 339.83 254.87 345.33 254.73 351.30
  C 254.72 351.61 254.46 351.86 254.15 351.86
  L 232.12 351.86
  C 231.83 351.86 231.60 351.63 231.61 351.35
  C 231.61 350.91 231.64 345.29 231.70 334.50
  C 231.72 332.35 232.26 330.02 234.16 328.47
  C 234.77 327.97 235.45 327.28 236.19 326.39
  C 236.59 325.92 236.26 325.20 235.64 325.20
  L 212.08 325.20
  C 211.70 325.20 211.40 325.52 211.43 325.90
  C 211.48 326.39 211.64 326.76 211.92 326.99
  C 214.80 329.37 216.39 330.22 216.40 334.53
  C 216.41 350.25 216.42 365.74 216.45 381.01
  C 216.46 384.00 215.95 386.22 213.62 387.87
  C 212.84 388.42 212.14 389.05 211.52 389.76
  C 211.04 390.31 211.43 391.18 212.17 391.18
  L 235.57 391.18
  C 236.04 391.18 236.41 390.79 236.38 390.32
  C 236.33 389.50 235.97 388.75 235.27 388.33
  C 233.12 387.05 231.96 385.25 231.78 382.94
  C 231.65 381.29 231.62 373.97 231.67 360.97
  C 231.68 360.55 232.01 360.22 232.43 360.22"
/>
<path stroke="#e6cd9a" vector-effect="non-scaling-stroke" d="
  M 401.45 325.91
  L 402.30 327.29
  C 402.35 327.37 402.42 327.44 402.50 327.49
  C 405.31 329.11 406.75 331.12 406.81 333.51
  C 406.96 339.24 406.99 351.06 406.92 368.96
  C 406.89 374.31 404.85 381.97 398.98 383.25
  C 392.37 384.70 385.65 384.92 382.02 377.97
  C 380.62 375.28 379.89 371.79 379.83 367.49
  C 379.68 357.14 379.65 346.15 379.75 334.50
  C 379.76 332.87 380.13 331.29 380.86 329.75
  C 380.89 329.68 380.93 329.63 380.98 329.58
  L 384.07 326.60
  C 384.60 326.09 384.24 325.20 383.50 325.20
  L 360.54 325.20
  C 359.69 325.20 359.34 326.30 360.04 326.79
  C 364.35 329.80 364.72 332.78 364.70 338.51
  C 364.65 355.09 364.67 367.02 364.75 374.30
  C 364.76 374.89 364.85 375.48 365.02 376.05
  C 369.46 390.57 383.48 394.77 397.18 392.73
  C 405.83 391.44 413.16 385.43 415.93 377.36
  C 416.84 374.71 417.25 369.92 417.14 362.99
  C 416.92 347.94 416.83 338.78 416.88 335.51
  C 416.93 331.52 418.35 328.81 421.13 327.37
  C 421.39 327.24 421.61 327.02 421.79 326.73
  C 421.91 326.55 422.00 326.39 422.05 326.25
  C 422.27 325.70 421.87 325.09 421.27 325.09
  L 401.90 325.09
  C 401.48 325.09 401.23 325.55 401.45 325.91"
/>
<path stroke="#9ed1d2" vector-effect="non-scaling-stroke" d="
  M 117.20 408.05
  C 120.80 411.48 127.94 413.36 132.78 413.37
  C 140.70 413.39 150.81 412.11 158.63 415.36
  C 169.37 419.83 179.22 422.50 190.55 418.76
  C 198.54 416.12 204.54 413.28 213.21 414.22
  C 218.30 414.77 224.89 418.28 230.22 419.31
  C 236.94 420.59 245.12 420.30 251.96 417.56
  C 260.07 414.32 267.74 412.47 275.70 415.31
  C 279.99 416.84 285.23 419.14 289.66 419.67
  C 295.59 420.39 301.46 420.00 307.27 418.51
  C 308.58 418.17 311.83 417.10 317.04 415.31
  C 323.01 413.25 329.68 413.60 336.77 415.47
  C 340.68 416.50 343.36 417.15 344.81 417.41
  C 351.38 418.56 357.88 418.01 364.31 415.76
  C 370.28 413.67 378.30 408.95 385.40 408.65
  C 385.88 408.63 385.99 407.97 385.55 407.79
  C 377.85 404.59 371.40 405.48 363.70 407.58
  C 356.96 409.42 349.47 409.38 342.83 407.19
  C 338.55 405.78 332.88 403.73 328.20 403.42
  C 323.03 403.07 317.90 403.32 312.90 405.34
  C 304.25 408.85 296.81 411.19 287.51 408.25
  C 286.24 407.85 284.10 407.08 281.08 405.93
  C 272.17 402.54 263.16 402.36 254.07 405.38
  C 244.28 408.63 239.27 411.12 229.99 407.99
  C 224.30 406.07 219.56 404.67 215.76 403.79
  C 213.38 403.24 208.99 403.19 202.59 403.64
  C 200.78 403.76 198.39 404.41 195.40 405.58
  C 187.11 408.81 180.03 411.12 171.03 408.15
  C 165.53 406.34 162.04 405.21 160.56 404.74
  C 154.73 402.92 149.12 402.36 143.74 403.07
  C 141.41 403.37 137.53 404.22 132.10 405.61
  C 127.09 406.89 122.18 407.55 117.39 407.58
  C 117.14 407.58 117.02 407.88 117.20 408.05"
/>
<path stroke="#9ed1d2" vector-effect="non-scaling-stroke" d="
  M 181.13 431.80
  C 180.64 431.80 180.47 432.44 180.88 432.70
  C 189.71 438.22 197.69 438.59 208.51 437.01
  C 213.91 436.22 218.99 437.83 225.62 440.62
  C 232.51 443.53 239.88 444.13 247.71 442.43
  C 250.79 441.77 254.15 440.14 257.49 439.02
  C 262.91 437.20 268.34 437.01 273.79 438.44
  C 278.92 439.79 282.49 440.62 284.52 440.92
  C 293.86 442.31 302.22 438.54 312.00 434.37
  C 312.68 434.08 313.39 433.87 314.12 433.74
  L 318.65 432.97
  C 319.09 432.89 319.17 432.29 318.76 432.11
  C 315.94 430.84 312.86 430.47 309.51 431.01
  C 305.48 431.66 297.62 433.31 291.65 432.45
  C 287.86 431.90 285.50 431.48 284.56 431.19
  C 277.78 429.06 273.77 427.89 272.52 427.67
  C 265.96 426.52 259.68 427.04 253.69 429.23
  C 249.99 430.58 246.32 431.63 242.69 432.38
  C 238.48 433.25 232.20 431.65 226.95 429.50
  C 218.50 426.05 211.04 425.81 202.34 428.70
  C 197.54 430.29 193.51 431.30 190.26 431.73
  C 189.93 431.78 189.59 431.80 189.26 431.80
  L 181.13 431.80"
/>
<path stroke="#8a9ba6" vector-effect="non-scaling-stroke" d="
  M 177.79 121.29
  L 177.79 148.08
  C 177.79 148.42 178.06 148.69 178.40 148.69
  L 203.44 148.69
  C 203.81 148.69 204.11 148.39 204.11 148.02
  L 203.93 129.26
  C 203.93 129.00 203.89 128.74 203.81 128.49
  C 202.38 123.74 199.00 121.20 193.68 120.87
  C 189.99 120.64 184.88 120.58 178.37 120.69
  C 178.05 120.70 177.79 120.96 177.79 121.29"
/>
<path stroke="#8a9ba6" vector-effect="non-scaling-stroke" d="
  M 253.50 194.57
  C 253.50 194.77 253.67 194.94 253.87 194.94
  L 285.23 194.94
  C 285.31 194.94 285.40 194.91 285.46 194.85
  L 290.47 190.67
  C 290.73 190.45 290.58 190.02 290.23 190.02
  L 253.87 190.02
  C 253.67 190.02 253.50 190.19 253.50 190.39
  L 253.50 194.57"
/>
<path stroke="#8a9ba6" vector-effect="non-scaling-stroke" d="
  M 332.23 201.85
  C 332.14 201.88 332.10 201.97 332.15 202.05
  L 344.83 222.56
  C 345.12 223.02 345.62 223.30 346.16 223.30
  L 352.44 223.30
  C 352.75 223.30 352.90 222.93 352.69 222.71
  L 332.67 201.93
  C 332.65 201.91 332.63 201.90 332.60 201.89
  C 332.43 201.84 332.31 201.83 332.23 201.85"
/>
<path stroke="#8a9ba6" vector-effect="non-scaling-stroke" d="
  M 329.42 211.07
  L 331.17 222.73
  C 331.22 223.05 331.49 223.29 331.82 223.29
  L 336.40 223.29
  C 336.70 223.29 336.89 222.96 336.74 222.70
  L 329.89 210.89
  C 329.83 210.78 329.71 210.72 329.58 210.74
  C 329.46 210.81 329.40 210.94 329.42 211.07"
/>
<path stroke="#716940" vector-effect="non-scaling-stroke" d="
  M 205.18 180.69
  C 202.07 180.99 198.69 182.32 195.06 184.68
  C 194.48 185.05 194.36 185.85 194.80 186.38
  L 201.65 194.59
  C 201.87 194.86 202.21 195.02 202.56 195.02
  C 203.79 195.02 204.84 194.50 205.72 193.46
  C 205.88 193.27 205.97 193.03 205.97 192.78
  L 205.97 181.41
  C 205.97 180.98 205.60 180.65 205.18 180.69"
/>
<path stroke="#716940" vector-effect="non-scaling-stroke" d="
  M 211.35 180.68
  C 210.98 180.63 210.64 180.92 210.64 181.29
  L 210.66 191.91
  C 210.66 192.20 210.74 192.48 210.90 192.73
  C 211.41 193.57 212.32 194.19 213.64 194.59
  C 214.13 194.75 214.67 194.63 215.04 194.27
  L 222.71 186.86
  C 223.03 186.55 223.01 186.03 222.67 185.74
  C 219.30 182.98 215.52 181.29 211.35 180.68"
/>
<path stroke="#716940" vector-effect="non-scaling-stroke" d="
  M 186.11 201.83
  L 197.17 202.24
  C 197.57 202.26 197.95 202.05 198.16 201.70
  C 198.82 200.56 199.22 199.50 199.34 198.52
  C 199.39 198.18 199.28 197.85 199.06 197.60
  L 191.46 189.09
  C 191.19 188.78 190.70 188.82 190.47 189.15
  C 188.00 192.79 186.36 196.78 185.56 201.13
  C 185.49 201.48 185.75 201.81 186.11 201.83"
/>
<path stroke="#716940" vector-effect="non-scaling-stroke" d="
  M 226.64 190.00
  C 226.42 189.70 226.00 189.67 225.74 189.92
  L 218.41 197.17
  C 218.21 197.36 218.07 197.61 218.00 197.88
  C 217.77 198.81 217.96 199.86 218.58 201.05
  C 218.81 201.50 219.26 201.78 219.75 201.79
  L 230.10 202.06
  C 230.53 202.07 230.88 201.70 230.84 201.27
  C 230.46 197.06 229.06 193.30 226.64 190.00"
/>
<path stroke="#716940" vector-effect="non-scaling-stroke" d="
  M 186.30 207.17
  C 185.99 207.21 185.78 207.51 185.84 207.82
  C 186.97 213.99 190.01 218.79 194.94 222.20
  C 195.41 222.52 196.05 222.37 196.33 221.88
  L 200.85 214.05
  C 201.10 213.62 201.10 213.10 200.85 212.67
  L 198.26 208.25
  C 198.11 208.00 197.95 207.76 197.78 207.52
  C 197.50 207.19 196.42 207.00 194.55 206.94
  C 191.06 206.82 188.31 206.90 186.30 207.17"
/>
<path stroke="#716940" vector-effect="non-scaling-stroke" d="
  M 226.81 216.97
  L 217.51 215.96
  C 217.23 215.93 217.04 216.23 217.19 216.47
  L 220.52 221.86
  C 220.85 222.38 221.53 222.54 222.06 222.22
  C 223.95 221.05 225.60 219.47 227.03 217.47
  C 227.17 217.27 227.05 217.00 226.81 216.97"
/>
<path stroke="#716940" vector-effect="non-scaling-stroke" d="
  M 200.64 225.34
  C 205.83 226.93 210.81 227.02 215.58 225.62
  C 216.18 225.44 216.45 224.74 216.12 224.21
  L 212.14 217.77
  C 211.66 217.00 210.85 216.49 209.94 216.39
  L 206.12 215.98
  C 205.51 215.91 204.91 216.21 204.59 216.75
  L 200.23 224.31
  C 200.00 224.70 200.20 225.21 200.64 225.34"
/>
<path stroke="#716940" vector-effect="non-scaling-stroke" d="
  M 308.86 217.84
  C 308.86 213.69 305.49 210.32 301.34 210.32
  C 297.19 210.32 293.82 213.69 293.82 217.84
  C 293.82 221.99 297.19 225.36 301.34 225.36
  C 305.49 225.36 308.86 221.99 308.86 217.84"
/>
<path stroke="#8a9ba6" vector-effect="non-scaling-stroke" d="
  M 317.09 276.91
  C 317.02 283.72 318.34 290.12 321.88 296.36
  C 326.11 303.83 334.96 306.21 342.05 301.38
  C 349.65 296.21 350.86 285.77 350.94 277.24
  C 351.03 268.70 350.01 258.24 342.52 252.92
  C 335.52 247.96 326.62 250.17 322.25 257.56
  C 318.60 263.72 317.15 270.10 317.09 276.91"
/>
<path stroke="#8a9ba6" vector-effect="non-scaling-stroke" d="
  M 195.75 283.77
  C 195.69 283.99 195.86 284.21 196.08 284.21
  L 210.76 283.98
  C 210.99 283.97 211.15 283.75 211.08 283.53
  L 203.37 259.79
  C 203.26 259.47 202.81 259.48 202.72 259.80
  L 195.75 283.77"
/>
<path stroke="#8a9ba6" vector-effect="non-scaling-stroke" d="
  M 260.18 252.56
  L 260.34 276.42
  C 260.35 276.74 260.61 276.99 260.93 276.99
  L 268.77 276.94
  C 274.57 276.90 279.24 272.58 279.20 267.30
  L 279.16 261.40
  C 279.12 256.12 274.39 251.88 268.59 251.92
  L 260.75 251.97
  C 260.43 251.97 260.17 252.24 260.18 252.56"
/>
<path stroke="#716940" vector-effect="non-scaling-stroke" d="
  M 308.24 336.81
  C 305.86 337.85 304.02 339.00 302.72 340.27
  C 302.47 340.52 302.46 340.91 302.70 341.17
  L 310.60 349.36
  C 311.21 349.99 312.14 350.18 312.95 349.84
  C 313.48 349.62 313.75 349.50 313.75 349.50
  C 313.76 349.50 314.03 349.38 314.56 349.14
  C 315.35 348.79 315.85 347.98 315.80 347.10
  L 315.21 335.74
  C 315.19 335.39 314.89 335.12 314.55 335.13
  C 312.73 335.22 310.63 335.78 308.24 336.81"
/>
<path stroke="#716940" vector-effect="non-scaling-stroke" d="
  M 333.85 340.22
  C 330.19 337.39 325.99 335.70 321.24 335.15
  C 320.75 335.10 320.33 335.48 320.33 335.97
  L 320.33 347.66
  C 320.33 348.22 320.64 348.74 321.14 349.01
  C 322.46 349.74 323.65 349.98 324.70 349.75
  C 325.01 349.68 325.29 349.53 325.52 349.31
  L 333.91 341.24
  C 334.21 340.96 334.18 340.47 333.85 340.22"
/>
<path stroke="#716940" vector-effect="non-scaling-stroke" d="
  M 343.42 357.43
  C 342.85 352.75 341.06 348.48 338.06 344.64
  C 337.75 344.25 337.17 344.22 336.81 344.57
  L 328.32 352.95
  C 327.91 353.35 327.76 353.95 327.92 354.51
  C 328.34 355.99 329.01 357.02 329.94 357.62
  C 330.21 357.80 330.52 357.89 330.85 357.90
  L 342.72 358.21
  C 343.14 358.22 343.47 357.85 343.42 357.43"
/>
<path stroke="#716940" vector-effect="non-scaling-stroke" d="
  M 293.83 358.49
  L 305.66 358.49
  C 306.09 358.49 306.49 358.25 306.69 357.87
  C 307.36 356.62 307.74 355.47 307.83 354.42
  C 307.86 354.06 307.74 353.71 307.49 353.45
  L 299.03 344.67
  C 298.72 344.35 298.20 344.41 297.97 344.78
  C 295.48 348.76 293.90 353.09 293.21 357.77
  C 293.15 358.15 293.45 358.49 293.83 358.49"
/>
<path stroke="#716940" vector-effect="non-scaling-stroke" d="
  M 323.85 360.02
  C 323.85 356.88 321.30 354.33 318.16 354.33
  C 315.02 354.33 312.47 356.88 312.47 360.02
  C 312.47 363.16 315.02 365.71 318.16 365.71
  C 321.30 365.71 323.85 363.16 323.85 360.02"
/>
<path stroke="#716940" vector-effect="non-scaling-stroke" d="
  M 293.80 363.64
  C 294.44 368.01 296.20 371.96 299.09 375.49
  C 299.39 375.85 299.93 375.87 300.26 375.53
  L 308.01 367.51
  C 308.39 367.12 308.52 366.56 308.35 366.05
  C 307.93 364.67 307.28 363.71 306.40 363.18
  C 306.15 363.02 305.85 362.93 305.55 362.93
  L 294.44 362.90
  C 294.05 362.90 293.75 363.25 293.80 363.64"
/>
<path stroke="#716940" vector-effect="non-scaling-stroke" d="
  M 328.57 364.46
  C 328.19 365.36 328.01 365.86 328.03 365.97
  C 328.15 366.52 328.42 367.02 328.81 367.42
  L 337.02 375.67
  C 337.20 375.86 337.51 375.85 337.68 375.65
  C 339.00 374.12 340.16 372.18 341.16 369.82
  C 342.17 367.46 342.76 365.27 342.95 363.27
  C 342.97 363.01 342.77 362.78 342.50 362.78
  L 330.87 362.59
  C 330.31 362.58 329.76 362.73 329.28 363.03
  C 329.19 363.09 328.95 363.57 328.57 364.46"
/>
<path stroke="#716940" vector-effect="non-scaling-stroke" d="
  M 333.25 379.40
  C 333.57 379.17 333.60 378.70 333.32 378.43
  L 325.36 370.63
  C 325.15 370.41 324.88 370.27 324.58 370.20
  C 323.58 369.97 322.44 370.19 321.17 370.88
  C 320.69 371.13 320.39 371.62 320.38 372.16
  L 320.27 383.35
  C 320.27 383.82 320.67 384.19 321.14 384.14
  C 325.69 383.66 329.72 382.08 333.25 379.40"
/>
<path stroke="#716940" vector-effect="non-scaling-stroke" d="
  M 303.44 379.58
  C 306.82 382.12 310.69 383.62 315.04 384.07
  C 315.48 384.11 315.86 383.76 315.86 383.31
  L 315.72 372.62
  C 315.71 372.10 315.42 371.63 314.96 371.39
  C 313.74 370.74 312.66 370.53 311.70 370.76
  C 311.42 370.82 311.16 370.96 310.95 371.17
  L 303.38 378.65
  C 303.11 378.91 303.14 379.35 303.44 379.58"
/>
</g>
<g fill="#ffffff">
<path d="
  M 500.00 0.00
  L 500.00 500.00
  L 0.00 500.00
  L 0.00 0.00
  L 500.00 0.00
  Z
  M 260.85 56.30
  C 262.07 55.55 263.57 55.37 264.93 55.82
  C 272.22 58.26 273.10 66.67 267.78 71.56
  C 264.90 74.21 262.01 75.81 259.11 76.34
  C 251.16 77.81 244.17 74.60 239.94 67.61
  C 237.47 63.52 237.66 57.96 234.94 53.81
  C 232.93 50.75 229.96 48.56 226.03 47.24
  C 218.12 44.58 211.36 45.68 205.73 50.53
  C 198.82 56.49 194.79 69.71 184.17 66.30
  C 182.26 65.69 180.21 64.80 178.02 63.63
  C 177.39 63.29 176.63 63.79 176.69 64.51
  C 177.03 68.41 180.30 72.13 183.48 74.22
  C 190.54 78.87 200.42 76.68 205.99 70.77
  C 208.66 67.93 214.58 60.58 218.08 62.94
  C 219.36 63.79 221.97 66.48 220.57 68.43
  C 219.52 69.90 217.89 70.62 215.68 70.57
  C 215.26 70.56 214.93 70.91 214.97 71.33
  C 216.37 85.82 231.67 92.77 243.98 85.91
  C 244.51 85.62 245.17 85.69 245.63 86.09
  C 250.89 90.73 257.17 92.33 264.47 90.90
  C 269.80 89.85 273.82 87.28 278.60 83.85
  C 283.66 80.23 289.55 78.54 293.15 85.33
  C 294.15 87.21 294.70 88.25 294.81 88.45
  C 294.96 88.73 295.26 88.91 295.58 88.91
  L 308.78 88.91
  C 309.36 88.91 309.86 88.48 309.93 87.90
  C 310.36 84.54 310.04 80.95 308.95 77.14
  C 306.25 67.70 297.12 63.46 287.68 65.46
  C 287.26 65.54 286.89 65.20 286.93 64.78
  C 287.62 57.95 287.24 50.80 281.37 46.02
  C 272.81 39.05 263.62 38.12 253.81 43.25
  C 246.27 47.20 242.05 57.12 244.67 65.21
  C 245.79 68.66 248.35 70.89 252.34 71.92
  C 257.08 73.13 264.20 71.76 264.97 65.95
  C 265.50 61.94 263.58 59.70 259.21 59.23
  C 258.35 59.14 258.09 58.01 258.83 57.55
  L 260.85 56.30
  Z
  M 238.53 205.62
  C 241.34 184.05 220.84 168.24 200.55 173.48
  C 189.22 176.41 181.02 184.68 178.34 196.26
  C 176.09 205.94 178.72 217.41 185.85 224.60
  C 191.69 230.49 199.34 234.44 207.87 234.39
  C 212.16 234.36 215.81 233.76 218.80 232.59
  C 227.81 229.08 233.98 222.62 237.31 213.23
  C 247.86 212.88 259.75 213.06 273.00 213.76
  C 276.42 213.95 279.50 212.47 281.52 209.24
  C 286.29 201.61 292.17 196.42 301.51 196.26
  C 312.45 196.08 321.03 204.36 322.56 214.89
  C 323.30 220.02 322.64 225.01 320.57 229.84
  C 320.25 230.60 320.81 231.44 321.63 231.44
  L 368.93 231.44
  C 369.62 231.44 370.13 230.79 369.96 230.11
  C 369.79 229.42 369.50 228.86 369.09 228.42
  C 353.06 211.27 338.71 196.13 326.02 183.02
  C 325.75 182.74 325.74 182.29 325.99 182.00
  C 332.13 174.94 335.28 168.83 335.14 159.16
  C 335.05 152.37 335.04 147.23 335.13 143.74
  C 335.14 143.29 335.47 142.26 336.12 140.65
  C 336.26 140.32 336.30 139.95 336.25 139.60
  C 335.83 136.73 334.07 135.22 330.97 135.05
  C 327.96 134.89 321.99 134.82 313.05 134.83
  C 309.79 134.83 308.46 133.36 309.06 130.43
  C 311.05 120.72 312.72 112.46 314.07 105.63
  C 314.14 105.26 314.46 105.00 314.83 105.00
  C 319.21 105.04 320.08 99.88 319.60 96.42
  C 319.41 95.07 318.49 94.39 316.84 94.38
  C 304.96 94.31 294.25 94.32 284.70 94.40
  C 284.28 94.40 283.88 94.60 283.63 94.94
  C 280.99 98.58 282.63 105.18 287.98 105.04
  C 288.56 105.02 289.07 105.44 289.17 106.01
  L 293.55 131.46
  C 293.72 132.43 293.22 133.40 292.33 133.84
  C 291.10 134.44 289.47 134.92 287.94 134.90
  C 281.83 134.82 275.33 134.82 268.46 134.90
  C 268.15 134.91 267.89 134.64 267.91 134.33
  C 268.04 132.00 268.14 128.84 268.20 124.83
  C 268.32 117.30 266.09 112.57 258.35 112.37
  C 253.78 112.25 249.44 111.98 245.39 114.06
  C 245.02 114.25 244.70 114.52 244.45 114.85
  C 242.87 116.92 242.02 119.36 241.90 122.15
  C 241.75 125.88 241.80 129.99 242.06 134.49
  C 242.08 134.72 241.89 134.92 241.65 134.92
  L 219.71 134.92
  C 219.41 134.92 219.17 134.68 219.17 134.38
  L 219.17 113.08
  C 219.17 112.74 219.34 112.43 219.62 112.26
  C 221.29 111.20 222.29 110.35 222.61 109.72
  C 224.10 106.77 223.35 104.53 220.34 102.99
  C 220.16 102.90 219.97 102.86 219.78 102.85
  L 148.27 102.45
  C 147.43 102.44 146.75 103.12 146.75 103.96
  L 146.75 114.66
  C 146.75 115.30 147.28 115.82 147.93 115.81
  C 156.06 115.69 166.53 114.24 166.55 125.99
  C 166.62 166.58 166.65 188.31 166.66 191.18
  C 166.66 191.45 166.45 191.66 166.18 191.66
  L 154.72 191.66
  C 154.35 191.66 154.05 191.96 154.04 192.34
  C 153.97 198.72 153.99 202.66 154.10 204.16
  C 154.15 204.87 154.71 205.79 155.79 206.91
  C 156.05 207.18 156.40 207.33 156.78 207.33
  L 169.14 207.33
  C 169.80 207.33 170.35 206.81 170.38 206.15
  C 170.84 196.70 171.93 188.40 177.76 180.82
  C 182.94 174.09 189.34 169.52 196.96 167.12
  C 216.93 160.83 238.49 171.96 244.48 192.44
  C 245.50 195.94 246.05 198.83 246.13 201.11
  C 246.14 201.34 246.32 201.52 246.55 201.52
  L 275.49 201.52
  C 275.83 201.52 276.05 201.87 275.92 202.18
  C 274.62 205.21 271.18 205.65 268.00 205.71
  C 258.19 205.88 248.36 205.85 238.53 205.62
  Z
  M 316.82 218.37
  C 316.82 209.79 309.87 202.84 301.29 202.84
  C 292.71 202.84 285.76 209.79 285.76 218.37
  C 285.76 226.95 292.71 233.90 301.29 233.90
  C 309.87 233.90 316.82 226.95 316.82 218.37
  Z
  M 119.67 227.65
  C 128.49 234.60 138.65 231.90 150.03 228.98
  C 153.69 228.04 156.38 227.57 159.69 228.59
  C 166.95 230.80 175.23 233.09 182.30 230.70
  C 182.48 230.64 182.49 230.39 182.31 230.32
  L 178.35 228.91
  C 178.29 228.89 178.23 228.86 178.17 228.82
  C 174.60 226.43 172.01 224.79 170.38 223.88
  C 161.42 218.91 152.29 218.22 143.00 221.81
  C 135.01 224.90 129.19 228.12 119.93 227.01
  C 119.57 226.97 119.39 227.43 119.67 227.65
  Z
  M 235.93 230.85
  C 239.75 233.13 245.89 232.55 249.86 231.75
  C 255.20 230.68 259.37 230.29 263.81 231.23
  C 269.38 232.41 272.92 232.88 277.67 230.51
  C 278.02 230.34 277.97 229.83 277.59 229.73
  C 271.45 228.19 266.45 223.58 260.19 222.66
  C 253.96 221.74 248.45 222.88 243.03 226.47
  C 240.42 228.19 238.08 229.45 235.99 230.24
  C 235.72 230.34 235.69 230.70 235.93 230.85
  Z
  M 431.11 268.79
  C 439.22 266.77 444.22 262.06 446.11 254.65
  C 446.97 251.30 446.79 248.45 445.58 246.11
  C 442.34 239.85 430.88 241.69 431.41 250.13
  C 431.60 253.26 433.67 255.25 437.60 256.10
  C 437.96 256.18 438.20 256.54 438.13 256.90
  C 437.22 261.59 434.76 264.71 430.77 266.26
  C 430.43 266.39 430.23 266.75 430.29 267.12
  L 430.51 268.40
  C 430.56 268.68 430.84 268.86 431.11 268.79
  Z
  M 82.46 308.98
  C 90.24 308.99 94.13 308.99 94.16 308.99
  C 95.03 308.95 95.45 307.90 94.85 307.26
  C 94.19 306.57 93.52 306.02 92.85 305.62
  C 90.20 304.03 89.97 301.64 89.94 298.25
  C 89.90 293.95 89.93 278.76 90.02 252.69
  C 90.02 252.44 90.22 252.24 90.47 252.25
  C 93.27 252.26 98.27 251.92 101.35 253.82
  C 104.05 255.48 105.92 257.32 106.95 259.33
  C 108.04 261.46 108.73 262.72 109.00 263.12
  C 109.54 263.94 110.80 263.67 110.96 262.70
  C 111.01 262.40 111.00 262.01 110.93 261.52
  C 110.32 256.73 109.11 250.79 107.31 243.69
  C 107.16 243.08 106.43 242.83 105.93 243.22
  C 105.30 243.71 104.61 244.05 103.88 244.25
  C 103.69 244.30 103.49 244.33 103.29 244.35
  C 102.92 244.38 95.99 244.40 82.49 244.39
  C 69.00 244.39 62.06 244.37 61.70 244.33
  C 61.50 244.31 61.30 244.28 61.11 244.23
  C 60.37 244.03 59.69 243.69 59.06 243.20
  C 58.56 242.81 57.83 243.06 57.68 243.67
  C 55.87 250.77 54.66 256.71 54.04 261.49
  C 53.97 261.98 53.96 262.37 54.01 262.67
  C 54.17 263.64 55.43 263.91 55.97 263.10
  C 56.24 262.70 56.93 261.43 58.02 259.31
  C 59.06 257.30 60.93 255.46 63.63 253.80
  C 66.71 251.91 71.71 252.25 74.51 252.24
  C 74.76 252.24 74.96 252.44 74.96 252.68
  C 75.03 278.76 75.04 293.94 75.00 298.24
  C 74.97 301.63 74.73 304.02 72.08 305.61
  C 71.41 306.01 70.74 306.56 70.08 307.25
  C 69.48 307.88 69.90 308.94 70.77 308.98
  C 70.80 308.98 74.69 308.98 82.46 308.98
  Z
  M 336.8523 242.6925
  C 318.63 241.35 302.73 255.65 301.3388 274.6173
  C 299.95 293.59 313.59 310.05 331.8077 311.3875
  C 350.03 312.73 365.93 298.43 367.3212 279.4627
  C 368.71 260.49 355.07 244.03 336.8523 242.6925
  Z
  M 143.09 279.15
  C 146.64 279.15 149.86 279.16 152.75 279.16
  C 152.96 279.16 153.12 279.32 153.13 279.53
  C 153.25 286.58 153.30 292.99 153.29 298.75
  C 153.29 301.52 152.71 304.05 150.46 305.88
  C 149.65 306.54 149.04 307.20 148.63 307.86
  C 148.35 308.31 148.67 308.88 149.19 308.88
  L 172.38 308.88
  C 173.13 308.88 173.52 307.99 173.02 307.43
  C 172.40 306.74 171.42 305.81 170.09 304.62
  C 168.71 303.38 168.46 300.78 168.46 298.71
  C 168.42 275.94 168.44 260.69 168.51 252.97
  C 168.54 250.12 169.90 248.00 172.59 246.61
  C 173.70 246.03 173.30 244.35 172.05 244.35
  L 149.64 244.35
  C 148.69 244.35 148.25 245.53 148.97 246.16
  L 152.06 248.83
  C 152.08 248.85 152.10 248.87 152.12 248.90
  C 152.81 250.17 153.17 251.30 153.19 252.29
  C 153.30 256.74 153.32 262.63 153.27 269.94
  C 153.27 270.24 153.03 270.48 152.74 270.49
  C 151.78 270.53 148.56 270.55 143.09 270.55
  C 137.62 270.55 134.40 270.53 133.44 270.49
  C 133.15 270.48 132.91 270.24 132.91 269.94
  C 132.85 262.63 132.88 256.75 132.98 252.29
  C 133.00 251.30 133.36 250.17 134.05 248.90
  C 134.07 248.88 134.09 248.85 134.11 248.83
  L 137.20 246.16
  C 137.92 245.54 137.48 244.35 136.53 244.35
  L 114.12 244.36
  C 112.87 244.36 112.46 246.05 113.58 246.62
  C 116.27 248.01 117.63 250.13 117.66 252.98
  C 117.74 260.70 117.76 275.95 117.73 298.72
  C 117.73 300.79 117.48 303.39 116.10 304.63
  C 114.77 305.82 113.79 306.76 113.18 307.44
  C 112.67 308.00 113.07 308.89 113.82 308.89
  L 137.01 308.88
  C 137.53 308.88 137.84 308.31 137.57 307.86
  C 137.15 307.20 136.54 306.54 135.73 305.88
  C 133.48 304.05 132.90 301.52 132.90 298.75
  C 132.89 292.99 132.94 286.59 133.05 279.53
  C 133.06 279.33 133.23 279.16 133.43 279.17
  C 136.32 279.16 139.55 279.16 143.09 279.15
  Z
  M 213.93 308.91
  L 237.43 308.91
  C 237.88 308.91 238.11 308.38 237.81 308.05
  C 235.52 305.59 233.68 304.96 232.45 301.06
  C 222.24 268.69 216.41 250.00 214.94 244.98
  C 214.84 244.64 214.52 244.40 214.16 244.40
  L 194.31 244.40
  C 193.21 244.40 192.80 245.83 193.73 246.42
  C 196.26 248.02 197.08 250.29 196.19 253.23
  C 189.17 276.23 184.38 292.01 181.83 300.57
  C 180.97 303.47 179.36 305.76 177.00 307.45
  C 176.33 307.93 176.66 308.99 177.49 308.99
  L 194.08 308.99
  C 194.90 308.99 195.28 307.98 194.66 307.44
  L 191.93 305.07
  C 191.77 304.93 191.66 304.75 191.60 304.54
  C 190.97 302.23 191.01 299.88 191.72 297.48
  C 191.94 296.74 192.55 294.88 193.55 291.90
  C 193.65 291.60 193.93 291.40 194.25 291.40
  L 213.20 291.40
  C 213.40 291.40 213.57 291.51 213.66 291.69
  C 215.01 294.65 215.99 297.57 216.60 300.45
  C 217.23 303.46 216.19 305.68 213.48 307.11
  C 212.60 307.58 212.93 308.91 213.93 308.91
  Z
  M 282.15 282.35
  C 288.81 279.47 294.27 274.39 294.86 266.77
  C 295.51 258.20 291.46 249.56 283.04 246.69
  C 280.82 245.93 278.66 245.26 276.55 244.68
  C 276.40 244.63 276.24 244.61 276.09 244.61
  L 241.47 244.36
  C 240.62 244.36 240.24 245.41 240.89 245.95
  L 243.70 248.27
  C 244.08 248.58 244.35 249.01 244.47 249.50
  C 244.84 251.09 245.03 252.34 245.04 253.25
  C 245.07 256.94 245.07 272.45 245.06 299.76
  C 245.06 301.55 244.74 303.10 244.09 304.43
  C 244.04 304.52 243.99 304.60 243.92 304.67
  L 240.67 307.80
  C 240.27 308.19 240.54 308.87 241.10 308.87
  L 264.52 308.87
  C 265.10 308.87 265.48 308.26 265.23 307.73
  L 265.05 307.35
  C 264.93 307.09 264.74 306.88 264.50 306.72
  L 262.12 305.13
  C 260.92 304.32 260.20 302.97 260.20 301.53
  L 260.20 284.52
  C 260.20 284.18 260.47 283.89 260.81 283.86
  C 264.09 283.59 268.01 283.66 269.52 286.81
  C 271.35 290.66 272.75 293.56 273.72 295.52
  C 278.32 304.83 280.59 308.83 291.32 308.76
  C 295.70 308.73 298.29 308.71 299.08 308.68
  C 299.55 308.66 299.89 308.22 299.79 307.76
  C 299.72 307.43 299.48 307.14 299.07 306.91
  C 296.44 305.38 294.37 303.35 292.87 300.80
  C 289.53 295.16 285.88 289.27 281.91 283.14
  C 281.73 282.86 281.84 282.48 282.15 282.35
  Z
  M 383.33 267.75
  C 391.96 279.54 401.19 292.29 411.00 305.99
  C 411.56 306.76 412.45 307.64 413.68 308.61
  C 413.96 308.84 414.32 308.96 414.68 308.96
  L 422.70 308.96
  C 423.05 308.96 423.33 308.68 423.34 308.32
  C 423.45 291.52 423.34 274.00 423.00 255.75
  C 422.97 253.68 423.34 250.49 424.74 249.14
  C 426.36 247.57 427.45 246.50 428.00 245.91
  C 428.48 245.40 428.12 244.56 427.42 244.56
  L 409.66 244.56
  C 408.69 244.56 408.35 245.85 409.19 246.34
  C 414.49 249.42 414.31 253.78 414.30 259.82
  C 414.30 262.68 414.32 270.91 414.35 284.51
  C 414.35 284.78 414.01 284.89 413.86 284.67
  C 406.07 273.34 397.74 261.27 388.85 248.45
  C 387.62 246.68 386.75 244.92 384.60 244.55
  C 384.35 244.51 382.63 244.49 379.43 244.49
  C 374.98 244.49 371.46 244.49 368.86 244.48
  C 367.87 244.48 367.46 245.76 368.28 246.32
  L 371.50 248.53
  C 371.85 248.77 372.15 249.08 372.38 249.45
  C 373.55 251.30 374.14 252.98 374.16 254.48
  C 374.39 271.97 374.37 287.21 374.11 300.19
  C 374.03 303.81 371.31 305.96 369.40 307.58
  C 369.01 307.91 369.00 308.26 369.36 308.64
  C 369.43 308.73 369.56 308.77 369.75 308.77
  C 372.80 308.80 378.74 308.83 387.57 308.84
  C 388.52 308.84 388.85 307.58 388.03 307.11
  L 385.38 305.58
  C 385.05 305.39 384.78 305.11 384.60 304.78
  C 383.58 302.92 383.06 300.91 383.03 298.74
  C 382.93 290.60 382.93 280.30 383.04 267.85
  C 383.04 267.69 383.24 267.62 383.33 267.75
  Z
  M 343.35 332.97
  C 326.82 317.69 301.31 320.56 288.06 338.65
  C 276.87 353.92 280.08 377.10 295.35 388.41
  C 303.66 394.56 312.94 397.15 323.20 396.16
  C 346.22 393.94 359.54 371.09 353.35 349.38
  C 351.49 342.88 348.16 337.41 343.35 332.97
  Z
  M 120.69 333.75
  C 126.64 333.56 132.56 333.98 136.34 338.96
  C 137.15 340.03 138.20 341.68 139.47 343.91
  C 140.10 345.00 141.75 344.70 141.96 343.46
  C 142.04 342.99 142.00 342.32 141.84 341.46
  C 140.77 335.65 139.61 330.01 138.36 324.55
  C 138.28 324.16 137.90 323.91 137.51 323.98
  L 133.89 324.60
  C 133.74 324.63 133.60 324.64 133.45 324.64
  C 119.57 324.71 106.09 324.72 93.00 324.69
  C 91.13 324.68 89.46 324.42 87.97 323.90
  C 87.31 323.67 86.60 324.08 86.46 324.76
  L 82.66 342.94
  C 82.54 343.51 82.84 344.08 83.38 344.31
  L 83.60 344.40
  C 84.25 344.66 84.99 344.35 85.24 343.70
  C 88.51 335.44 95.85 332.32 104.63 333.46
  C 104.96 333.51 105.20 333.79 105.20 334.12
  C 105.23 344.77 105.24 358.42 105.21 375.05
  C 105.20 381.16 105.90 385.95 99.63 388.83
  C 98.43 389.38 98.82 391.18 100.14 391.18
  L 125.19 391.18
  C 125.76 391.18 126.12 390.56 125.84 390.06
  C 125.44 389.35 124.79 388.69 123.90 388.06
  C 121.02 386.04 120.15 383.62 120.15 379.75
  C 120.16 349.48 120.17 334.33 120.18 334.28
  C 120.18 334.00 120.41 333.76 120.69 333.75
  Z
  M 202.56 373.83
  C 201.92 373.16 200.83 373.22 200.26 373.95
  C 194.19 381.76 185.67 385.55 176.08 382.33
  C 169.56 380.14 164.62 374.67 162.90 368.09
  C 161.15 361.38 160.96 351.57 163.77 344.97
  C 166.11 339.47 170.40 333.77 176.28 332.28
  C 178.53 331.71 181.18 331.55 184.23 331.79
  C 191.76 332.37 196.00 339.76 200.03 346.71
  C 200.41 347.36 200.85 347.71 201.35 347.77
  C 202.16 347.87 202.87 347.21 202.88 346.36
  C 202.95 341.00 202.94 334.06 202.85 325.55
  C 202.84 324.72 201.93 324.23 201.23 324.66
  L 197.35 327.06
  C 197.06 327.24 196.69 327.27 196.36 327.13
  C 189.55 324.23 182.06 323.15 173.90 323.90
  C 163.35 324.86 154.43 332.61 149.28 341.43
  C 144.90 348.93 143.59 357.54 145.25 365.55
  C 147.54 376.62 156.29 387.87 167.56 391.41
  C 181.79 395.87 196.56 391.82 205.61 379.28
  C 206.15 378.53 206.08 377.49 205.44 376.82
  L 202.56 373.83
  Z
  M 232.43 360.22
  L 254.11 360.22
  C 254.48 360.22 254.77 360.51 254.78 360.88
  C 254.85 373.25 254.83 380.37 254.74 382.23
  C 254.54 386.51 252.30 387.09 249.58 389.42
  C 248.88 390.02 249.31 391.17 250.23 391.17
  L 274.12 391.17
  C 274.92 391.17 275.33 390.20 274.77 389.63
  C 272.57 387.39 269.80 385.93 269.78 382.48
  C 269.65 357.71 269.66 341.47 269.82 333.76
  C 269.88 330.46 272.08 328.57 274.29 326.56
  C 274.82 326.07 274.48 325.19 273.76 325.19
  C 268.04 325.21 260.20 325.21 250.25 325.19
  C 249.93 325.18 249.68 325.28 249.50 325.49
  C 249.15 325.90 249.24 326.52 249.68 326.85
  C 253.01 329.30 254.45 330.37 254.64 334.82
  C 254.84 339.83 254.87 345.33 254.73 351.30
  C 254.72 351.61 254.46 351.86 254.15 351.86
  L 232.12 351.86
  C 231.83 351.86 231.60 351.63 231.61 351.35
  C 231.61 350.91 231.64 345.29 231.70 334.50
  C 231.72 332.35 232.26 330.02 234.16 328.47
  C 234.77 327.97 235.45 327.28 236.19 326.39
  C 236.59 325.92 236.26 325.20 235.64 325.20
  L 212.08 325.20
  C 211.70 325.20 211.40 325.52 211.43 325.90
  C 211.48 326.39 211.64 326.76 211.92 326.99
  C 214.80 329.37 216.39 330.22 216.40 334.53
  C 216.41 350.25 216.42 365.74 216.45 381.01
  C 216.46 384.00 215.95 386.22 213.62 387.87
  C 212.84 388.42 212.14 389.05 211.52 389.76
  C 211.04 390.31 211.43 391.18 212.17 391.18
  L 235.57 391.18
  C 236.04 391.18 236.41 390.79 236.38 390.32
  C 236.33 389.50 235.97 388.75 235.27 388.33
  C 233.12 387.05 231.96 385.25 231.78 382.94
  C 231.65 381.29 231.62 373.97 231.67 360.97
  C 231.68 360.55 232.01 360.22 232.43 360.22
  Z
  M 401.45 325.91
  L 402.30 327.29
  C 402.35 327.37 402.42 327.44 402.50 327.49
  C 405.31 329.11 406.75 331.12 406.81 333.51
  C 406.96 339.24 406.99 351.06 406.92 368.96
  C 406.89 374.31 404.85 381.97 398.98 383.25
  C 392.37 384.70 385.65 384.92 382.02 377.97
  C 380.62 375.28 379.89 371.79 379.83 367.49
  C 379.68 357.14 379.65 346.15 379.75 334.50
  C 379.76 332.87 380.13 331.29 380.86 329.75
  C 380.89 329.68 380.93 329.63 380.98 329.58
  L 384.07 326.60
  C 384.60 326.09 384.24 325.20 383.50 325.20
  L 360.54 325.20
  C 359.69 325.20 359.34 326.30 360.04 326.79
  C 364.35 329.80 364.72 332.78 364.70 338.51
  C 364.65 355.09 364.67 367.02 364.75 374.30
  C 364.76 374.89 364.85 375.48 365.02 376.05
  C 369.46 390.57 383.48 394.77 397.18 392.73
  C 405.83 391.44 413.16 385.43 415.93 377.36
  C 416.84 374.71 417.25 369.92 417.14 362.99
  C 416.92 347.94 416.83 338.78 416.88 335.51
  C 416.93 331.52 418.35 328.81 421.13 327.37
  C 421.39 327.24 421.61 327.02 421.79 326.73
  C 421.91 326.55 422.00 326.39 422.05 326.25
  C 422.27 325.70 421.87 325.09 421.27 325.09
  L 401.90 325.09
  C 401.48 325.09 401.23 325.55 401.45 325.91
  Z
  M 117.20 408.05
  C 120.80 411.48 127.94 413.36 132.78 413.37
  C 140.70 413.39 150.81 412.11 158.63 415.36
  C 169.37 419.83 179.22 422.50 190.55 418.76
  C 198.54 416.12 204.54 413.28 213.21 414.22
  C 218.30 414.77 224.89 418.28 230.22 419.31
  C 236.94 420.59 245.12 420.30 251.96 417.56
  C 260.07 414.32 267.74 412.47 275.70 415.31
  C 279.99 416.84 285.23 419.14 289.66 419.67
  C 295.59 420.39 301.46 420.00 307.27 418.51
  C 308.58 418.17 311.83 417.10 317.04 415.31
  C 323.01 413.25 329.68 413.60 336.77 415.47
  C 340.68 416.50 343.36 417.15 344.81 417.41
  C 351.38 418.56 357.88 418.01 364.31 415.76
  C 370.28 413.67 378.30 408.95 385.40 408.65
  C 385.88 408.63 385.99 407.97 385.55 407.79
  C 377.85 404.59 371.40 405.48 363.70 407.58
  C 356.96 409.42 349.47 409.38 342.83 407.19
  C 338.55 405.78 332.88 403.73 328.20 403.42
  C 323.03 403.07 317.90 403.32 312.90 405.34
  C 304.25 408.85 296.81 411.19 287.51 408.25
  C 286.24 407.85 284.10 407.08 281.08 405.93
  C 272.17 402.54 263.16 402.36 254.07 405.38
  C 244.28 408.63 239.27 411.12 229.99 407.99
  C 224.30 406.07 219.56 404.67 215.76 403.79
  C 213.38 403.24 208.99 403.19 202.59 403.64
  C 200.78 403.76 198.39 404.41 195.40 405.58
  C 187.11 408.81 180.03 411.12 171.03 408.15
  C 165.53 406.34 162.04 405.21 160.56 404.74
  C 154.73 402.92 149.12 402.36 143.74 403.07
  C 141.41 403.37 137.53 404.22 132.10 405.61
  C 127.09 406.89 122.18 407.55 117.39 407.58
  C 117.14 407.58 117.02 407.88 117.20 408.05
  Z
  M 181.13 431.80
  C 180.64 431.80 180.47 432.44 180.88 432.70
  C 189.71 438.22 197.69 438.59 208.51 437.01
  C 213.91 436.22 218.99 437.83 225.62 440.62
  C 232.51 443.53 239.88 444.13 247.71 442.43
  C 250.79 441.77 254.15 440.14 257.49 439.02
  C 262.91 437.20 268.34 437.01 273.79 438.44
  C 278.92 439.79 282.49 440.62 284.52 440.92
  C 293.86 442.31 302.22 438.54 312.00 434.37
  C 312.68 434.08 313.39 433.87 314.12 433.74
  L 318.65 432.97
  C 319.09 432.89 319.17 432.29 318.76 432.11
  C 315.94 430.84 312.86 430.47 309.51 431.01
  C 305.48 431.66 297.62 433.31 291.65 432.45
  C 287.86 431.90 285.50 431.48 284.56 431.19
  C 277.78 429.06 273.77 427.89 272.52 427.67
  C 265.96 426.52 259.68 427.04 253.69 429.23
  C 249.99 430.58 246.32 431.63 242.69 432.38
  C 238.48 433.25 232.20 431.65 226.95 429.50
  C 218.50 426.05 211.04 425.81 202.34 428.70
  C 197.54 430.29 193.51 431.30 190.26 431.73
  C 189.93 431.78 189.59 431.80 189.26 431.80
  L 181.13 431.80
  Z"
/>
<path d="
  M 178.37 120.69
  C 184.88 120.58 189.99 120.64 193.68 120.87
  C 199.00 121.20 202.38 123.74 203.81 128.49
  C 203.89 128.74 203.93 129.00 203.93 129.26
  L 204.11 148.02
  C 204.11 148.39 203.81 148.69 203.44 148.69
  L 178.40 148.69
  C 178.06 148.69 177.79 148.42 177.79 148.08
  L 177.79 121.29
  C 177.79 120.96 178.05 120.70 178.37 120.69
  Z"
/>
<path d="
  M 253.50 194.57
  L 253.50 190.39
  C 253.50 190.19 253.67 190.02 253.87 190.02
  L 290.23 190.02
  C 290.58 190.02 290.73 190.45 290.47 190.67
  L 285.46 194.85
  C 285.40 194.91 285.31 194.94 285.23 194.94
  L 253.87 194.94
  C 253.67 194.94 253.50 194.77 253.50 194.57
  Z"
/>
<path d="
  M 332.23 201.85
  C 332.31 201.83 332.43 201.84 332.60 201.89
  C 332.63 201.90 332.65 201.91 332.67 201.93
  L 352.69 222.71
  C 352.90 222.93 352.75 223.30 352.44 223.30
  L 346.16 223.30
  C 345.62 223.30 345.12 223.02 344.83 222.56
  L 332.15 202.05
  C 332.10 201.97 332.14 201.88 332.23 201.85
  Z"
/>
<path d="
  M 329.42 211.07
  C 329.40 210.94 329.46 210.81 329.58 210.74
  C 329.71 210.72 329.83 210.78 329.89 210.89
  L 336.74 222.70
  C 336.89 222.96 336.70 223.29 336.40 223.29
  L 331.82 223.29
  C 331.49 223.29 331.22 223.05 331.17 222.73
  L 329.42 211.07
  Z"
/>
<path d="
  M 350.94 277.24
  C 350.86 285.77 349.65 296.21 342.05 301.38
  C 334.96 306.21 326.11 303.83 321.88 296.36
  C 318.34 290.12 317.02 283.72 317.09 276.91
  C 317.15 270.10 318.60 263.72 322.25 257.56
  C 326.62 250.17 335.52 247.96 342.52 252.92
  C 350.01 258.24 351.03 268.70 350.94 277.24
  Z"
/>
<path d="
  M 260.18 252.56
  C 260.17 252.24 260.43 251.97 260.75 251.97
  L 268.59 251.92
  C 274.39 251.88 279.12 256.12 279.16 261.40
  L 279.20 267.30
  C 279.24 272.58 274.57 276.90 268.77 276.94
  L 260.93 276.99
  C 260.61 276.99 260.35 276.74 260.34 276.42
  L 260.18 252.56
  Z"
/>
<path d="
  M 195.75 283.77
  L 202.72 259.80
  C 202.81 259.48 203.26 259.47 203.37 259.79
  L 211.08 283.53
  C 211.15 283.75 210.99 283.97 210.76 283.98
  L 196.08 284.21
  C 195.86 284.21 195.69 283.99 195.75 283.77
  Z"
/>
</g>
<g fill="#15374c">
<path d="
  M 237.31 213.23
  C 227.53 212.80 218.00 212.05 208.72 210.98
  C 205.49 210.61 203.73 208.83 203.45 205.65
  C 203.18 202.60 204.35 200.35 206.98 198.92
  C 209.25 197.68 211.71 199.17 213.52 201.47
  C 214.73 203.01 216.20 203.99 217.93 204.40
  C 224.20 205.90 231.06 206.31 238.53 205.62
  C 248.36 205.85 258.19 205.88 268.00 205.71
  C 271.18 205.65 274.62 205.21 275.92 202.18
  C 276.05 201.87 275.83 201.52 275.49 201.52
  L 246.55 201.52
  C 246.32 201.52 246.14 201.34 246.13 201.11
  C 246.05 198.83 245.50 195.94 244.48 192.44
  C 238.49 171.96 216.93 160.83 196.96 167.12
  C 189.34 169.52 182.94 174.09 177.76 180.82
  C 171.93 188.40 170.84 196.70 170.38 206.15
  C 170.35 206.81 169.80 207.33 169.14 207.33
  L 156.78 207.33
  C 156.40 207.33 156.05 207.18 155.79 206.91
  C 154.71 205.79 154.15 204.87 154.10 204.16
  C 153.99 202.66 153.97 198.72 154.04 192.34
  C 154.05 191.96 154.35 191.66 154.72 191.66
  L 166.18 191.66
  C 166.45 191.66 166.66 191.45 166.66 191.18
  C 166.65 188.31 166.62 166.58 166.55 125.99
  C 166.53 114.24 156.06 115.69 147.93 115.81
  C 147.28 115.82 146.75 115.30 146.75 114.66
  L 146.75 103.96
  C 146.75 103.12 147.43 102.44 148.27 102.45
  L 219.78 102.85
  C 219.97 102.86 220.16 102.90 220.34 102.99
  C 223.35 104.53 224.10 106.77 222.61 109.72
  C 222.29 110.35 221.29 111.20 219.62 112.26
  C 219.34 112.43 219.17 112.74 219.17 113.08
  L 219.17 134.38
  C 219.17 134.68 219.41 134.92 219.71 134.92
  L 241.65 134.92
  C 241.89 134.92 242.08 134.72 242.06 134.49
  C 241.80 129.99 241.75 125.88 241.90 122.15
  C 242.02 119.36 242.87 116.92 244.45 114.85
  C 244.70 114.52 245.02 114.25 245.39 114.06
  C 249.44 111.98 253.78 112.25 258.35 112.37
  C 266.09 112.57 268.32 117.30 268.20 124.83
  C 268.14 128.84 268.04 132.00 267.91 134.33
  C 267.89 134.64 268.15 134.91 268.46 134.90
  C 275.33 134.82 281.83 134.82 287.94 134.90
  C 289.47 134.92 291.10 134.44 292.33 133.84
  C 293.22 133.40 293.72 132.43 293.55 131.46
  L 289.17 106.01
  C 289.07 105.44 288.56 105.02 287.98 105.04
  C 282.63 105.18 280.99 98.58 283.63 94.94
  C 283.88 94.60 284.28 94.40 284.70 94.40
  C 294.25 94.32 304.96 94.31 316.84 94.38
  C 318.49 94.39 319.41 95.07 319.60 96.42
  C 320.08 99.88 319.21 105.04 314.83 105.00
  C 314.46 105.00 314.14 105.26 314.07 105.63
  C 312.72 112.46 311.05 120.72 309.06 130.43
  C 308.46 133.36 309.79 134.83 313.05 134.83
  C 321.99 134.82 327.96 134.89 330.97 135.05
  C 334.07 135.22 335.83 136.73 336.25 139.60
  C 336.30 139.95 336.26 140.32 336.12 140.65
  C 335.47 142.26 335.14 143.29 335.13 143.74
  C 335.04 147.23 335.05 152.37 335.14 159.16
  C 335.28 168.83 332.13 174.94 325.99 182.00
  C 325.74 182.29 325.75 182.74 326.02 183.02
  C 338.71 196.13 353.06 211.27 369.09 228.42
  C 369.50 228.86 369.79 229.42 369.96 230.11
  C 370.13 230.79 369.62 231.44 368.93 231.44
  L 321.63 231.44
  C 320.81 231.44 320.25 230.60 320.57 229.84
  C 322.64 225.01 323.30 220.02 322.56 214.89
  C 321.03 204.36 312.45 196.08 301.51 196.26
  C 292.17 196.42 286.29 201.61 281.52 209.24
  C 279.50 212.47 276.42 213.95 273.00 213.76
  C 259.75 213.06 247.86 212.88 237.31 213.23
  Z
  M 177.79 121.29
  L 177.79 148.08
  C 177.79 148.42 178.06 148.69 178.40 148.69
  L 203.44 148.69
  C 203.81 148.69 204.11 148.39 204.11 148.02
  L 203.93 129.26
  C 203.93 129.00 203.89 128.74 203.81 128.49
  C 202.38 123.74 199.00 121.20 193.68 120.87
  C 189.99 120.64 184.88 120.58 178.37 120.69
  C 178.05 120.70 177.79 120.96 177.79 121.29
  Z
  M 253.50 194.57
  C 253.50 194.77 253.67 194.94 253.87 194.94
  L 285.23 194.94
  C 285.31 194.94 285.40 194.91 285.46 194.85
  L 290.47 190.67
  C 290.73 190.45 290.58 190.02 290.23 190.02
  L 253.87 190.02
  C 253.67 190.02 253.50 190.19 253.50 190.39
  L 253.50 194.57
  Z
  M 332.23 201.85
  C 332.14 201.88 332.10 201.97 332.15 202.05
  L 344.83 222.56
  C 345.12 223.02 345.62 223.30 346.16 223.30
  L 352.44 223.30
  C 352.75 223.30 352.90 222.93 352.69 222.71
  L 332.67 201.93
  C 332.65 201.91 332.63 201.90 332.60 201.89
  C 332.43 201.84 332.31 201.83 332.23 201.85
  Z
  M 329.42 211.07
  L 331.17 222.73
  C 331.22 223.05 331.49 223.29 331.82 223.29
  L 336.40 223.29
  C 336.70 223.29 336.89 222.96 336.74 222.70
  L 329.89 210.89
  C 329.83 210.78 329.71 210.72 329.58 210.74
  C 329.46 210.81 329.40 210.94 329.42 211.07
  Z"
/>
<path d="
  M 205.97 181.41
  L 205.97 192.78
  C 205.97 193.03 205.88 193.27 205.72 193.46
  C 204.84 194.50 203.79 195.02 202.56 195.02
  C 202.21 195.02 201.87 194.86 201.65 194.59
  L 194.80 186.38
  C 194.36 185.85 194.48 185.05 195.06 184.68
  C 198.69 182.32 202.07 180.99 205.18 180.69
  C 205.60 180.65 205.97 180.98 205.97 181.41
  Z"
/>
<path d="
  M 211.35 180.68
  C 215.52 181.29 219.30 182.98 222.67 185.74
  C 223.01 186.03 223.03 186.55 222.71 186.86
  L 215.04 194.27
  C 214.67 194.63 214.13 194.75 213.64 194.59
  C 212.32 194.19 211.41 193.57 210.90 192.73
  C 210.74 192.48 210.66 192.20 210.66 191.91
  L 210.64 181.29
  C 210.64 180.92 210.98 180.63 211.35 180.68
  Z"
/>
<path d="
  M 186.11 201.83
  C 185.75 201.81 185.49 201.48 185.56 201.13
  C 186.36 196.78 188.00 192.79 190.47 189.15
  C 190.70 188.82 191.19 188.78 191.46 189.09
  L 199.06 197.60
  C 199.28 197.85 199.39 198.18 199.34 198.52
  C 199.22 199.50 198.82 200.56 198.16 201.70
  C 197.95 202.05 197.57 202.26 197.17 202.24
  L 186.11 201.83
  Z"
/>
<path d="
  M 226.64 190.00
  C 229.06 193.30 230.46 197.06 230.84 201.27
  C 230.88 201.70 230.53 202.07 230.10 202.06
  L 219.75 201.79
  C 219.26 201.78 218.81 201.50 218.58 201.05
  C 217.96 199.86 217.77 198.81 218.00 197.88
  C 218.07 197.61 218.21 197.36 218.41 197.17
  L 225.74 189.92
  C 226.00 189.67 226.42 189.70 226.64 190.00
  Z"
/>
<path d="
  M 186.30 207.17
  C 188.31 206.90 191.06 206.82 194.55 206.94
  C 196.42 207.00 197.50 207.19 197.78 207.52
  C 197.95 207.76 198.11 208.00 198.26 208.25
  L 200.85 212.67
  C 201.10 213.10 201.10 213.62 200.85 214.05
  L 196.33 221.88
  C 196.05 222.37 195.41 222.52 194.94 222.20
  C 190.01 218.79 186.97 213.99 185.84 207.82
  C 185.78 207.51 185.99 207.21 186.30 207.17
  Z"
/>
<path d="
  M 308.86 217.84
  C 308.86 221.99 305.49 225.36 301.34 225.36
  C 297.19 225.36 293.82 221.99 293.82 217.84
  C 293.82 213.69 297.19 210.32 301.34 210.32
  C 305.49 210.32 308.86 213.69 308.86 217.84
  Z"
/>
<path d="
  M 226.81 216.97
  C 227.05 217.00 227.17 217.27 227.03 217.47
  C 225.60 219.47 223.95 221.05 222.06 222.22
  C 221.53 222.54 220.85 222.38 220.52 221.86
  L 217.19 216.47
  C 217.04 216.23 217.23 215.93 217.51 215.96
  L 226.81 216.97
  Z"
/>
<path d="
  M 200.23 224.31
  L 204.59 216.75
  C 204.91 216.21 205.51 215.91 206.12 215.98
  L 209.94 216.39
  C 210.85 216.49 211.66 217.00 212.14 217.77
  L 216.12 224.21
  C 216.45 224.74 216.18 225.44 215.58 225.62
  C 210.81 227.02 205.83 226.93 200.64 225.34
  C 200.20 225.21 200.00 224.70 200.23 224.31
  Z"
/>
<path d="
  M 431.11 268.79
  C 430.84 268.86 430.56 268.68 430.51 268.40
  L 430.29 267.12
  C 430.23 266.75 430.43 266.39 430.77 266.26
  C 434.76 264.71 437.22 261.59 438.13 256.90
  C 438.20 256.54 437.96 256.18 437.60 256.10
  C 433.67 255.25 431.60 253.26 431.41 250.13
  C 430.88 241.69 442.34 239.85 445.58 246.11
  C 446.79 248.45 446.97 251.30 446.11 254.65
  C 444.22 262.06 439.22 266.77 431.11 268.79
  Z"
/>
<path d="
  M 82.49 244.39
  C 95.99 244.40 102.92 244.38 103.29 244.35
  C 103.49 244.33 103.69 244.30 103.88 244.25
  C 104.61 244.05 105.30 243.71 105.93 243.22
  C 106.43 242.83 107.16 243.08 107.31 243.69
  C 109.11 250.79 110.32 256.73 110.93 261.52
  C 111.00 262.01 111.01 262.40 110.96 262.70
  C 110.80 263.67 109.54 263.94 109.00 263.12
  C 108.73 262.72 108.04 261.46 106.95 259.33
  C 105.92 257.32 104.05 255.48 101.35 253.82
  C 98.27 251.92 93.27 252.26 90.47 252.25
  C 90.22 252.24 90.02 252.44 90.02 252.69
  C 89.93 278.76 89.90 293.95 89.94 298.25
  C 89.97 301.64 90.20 304.03 92.85 305.62
  C 93.52 306.02 94.19 306.57 94.85 307.26
  C 95.45 307.90 95.03 308.95 94.16 308.99
  C 94.13 308.99 90.24 308.99 82.46 308.98
  C 74.69 308.98 70.80 308.98 70.77 308.98
  C 69.90 308.94 69.48 307.88 70.08 307.25
  C 70.74 306.56 71.41 306.01 72.08 305.61
  C 74.73 304.02 74.97 301.63 75.00 298.24
  C 75.04 293.94 75.03 278.76 74.96 252.68
  C 74.96 252.44 74.76 252.24 74.51 252.24
  C 71.71 252.25 66.71 251.91 63.63 253.80
  C 60.93 255.46 59.06 257.30 58.02 259.31
  C 56.93 261.43 56.24 262.70 55.97 263.10
  C 55.43 263.91 54.17 263.64 54.01 262.67
  C 53.96 262.37 53.97 261.98 54.04 261.49
  C 54.66 256.71 55.87 250.77 57.68 243.67
  C 57.83 243.06 58.56 242.81 59.06 243.20
  C 59.69 243.69 60.37 244.03 61.11 244.23
  C 61.30 244.28 61.50 244.31 61.70 244.33
  C 62.06 244.37 69.00 244.39 82.49 244.39
  Z"
/>
<path d="
  M 336.8523 242.6925
  C 355.07 244.03 368.71 260.49 367.3212 279.4627
  C 365.93 298.43 350.03 312.73 331.8077 311.3875
  C 313.59 310.05 299.95 293.59 301.3388 274.6173
  C 302.73 255.65 318.63 241.35 336.8523 242.6925
  Z
  M 317.09 276.91
  C 317.02 283.72 318.34 290.12 321.88 296.36
  C 326.11 303.83 334.96 306.21 342.05 301.38
  C 349.65 296.21 350.86 285.77 350.94 277.24
  C 351.03 268.70 350.01 258.24 342.52 252.92
  C 335.52 247.96 326.62 250.17 322.25 257.56
  C 318.60 263.72 317.15 270.10 317.09 276.91
  Z"
/>
<path d="
  M 143.09 270.55
  C 148.56 270.55 151.78 270.53 152.74 270.49
  C 153.03 270.48 153.27 270.24 153.27 269.94
  C 153.32 262.63 153.30 256.74 153.19 252.29
  C 153.17 251.30 152.81 250.17 152.12 248.90
  C 152.10 248.87 152.08 248.85 152.06 248.83
  L 148.97 246.16
  C 148.25 245.53 148.69 244.35 149.64 244.35
  L 172.05 244.35
  C 173.30 244.35 173.70 246.03 172.59 246.61
  C 169.90 248.00 168.54 250.12 168.51 252.97
  C 168.44 260.69 168.42 275.94 168.46 298.71
  C 168.46 300.78 168.71 303.38 170.09 304.62
  C 171.42 305.81 172.40 306.74 173.02 307.43
  C 173.52 307.99 173.13 308.88 172.38 308.88
  L 149.19 308.88
  C 148.67 308.88 148.35 308.31 148.63 307.86
  C 149.04 307.20 149.65 306.54 150.46 305.88
  C 152.71 304.05 153.29 301.52 153.29 298.75
  C 153.30 292.99 153.25 286.58 153.13 279.53
  C 153.12 279.32 152.96 279.16 152.75 279.16
  C 149.86 279.16 146.64 279.15 143.09 279.15
  C 139.55 279.16 136.32 279.16 133.43 279.17
  C 133.23 279.16 133.06 279.33 133.05 279.53
  C 132.94 286.59 132.89 292.99 132.90 298.75
  C 132.90 301.52 133.48 304.05 135.73 305.88
  C 136.54 306.54 137.15 307.20 137.57 307.86
  C 137.84 308.31 137.53 308.88 137.01 308.88
  L 113.82 308.89
  C 113.07 308.89 112.67 308.00 113.18 307.44
  C 113.79 306.76 114.77 305.82 116.10 304.63
  C 117.48 303.39 117.73 300.79 117.73 298.72
  C 117.76 275.95 117.74 260.70 117.66 252.98
  C 117.63 250.13 116.27 248.01 113.58 246.62
  C 112.46 246.05 112.87 244.36 114.12 244.36
  L 136.53 244.35
  C 137.48 244.35 137.92 245.54 137.20 246.16
  L 134.11 248.83
  C 134.09 248.85 134.07 248.88 134.05 248.90
  C 133.36 250.17 133.00 251.30 132.98 252.29
  C 132.88 256.75 132.85 262.63 132.91 269.94
  C 132.91 270.24 133.15 270.48 133.44 270.49
  C 134.40 270.53 137.62 270.55 143.09 270.55
  Z"
/>
<path d="
  M 213.93 308.91
  C 212.93 308.91 212.60 307.58 213.48 307.11
  C 216.19 305.68 217.23 303.46 216.60 300.45
  C 215.99 297.57 215.01 294.65 213.66 291.69
  C 213.57 291.51 213.40 291.40 213.20 291.40
  L 194.25 291.40
  C 193.93 291.40 193.65 291.60 193.55 291.90
  C 192.55 294.88 191.94 296.74 191.72 297.48
  C 191.01 299.88 190.97 302.23 191.60 304.54
  C 191.66 304.75 191.77 304.93 191.93 305.07
  L 194.66 307.44
  C 195.28 307.98 194.90 308.99 194.08 308.99
  L 177.49 308.99
  C 176.66 308.99 176.33 307.93 177.00 307.45
  C 179.36 305.76 180.97 303.47 181.83 300.57
  C 184.38 292.01 189.17 276.23 196.19 253.23
  C 197.08 250.29 196.26 248.02 193.73 246.42
  C 192.80 245.83 193.21 244.40 194.31 244.40
  L 214.16 244.40
  C 214.52 244.40 214.84 244.64 214.94 244.98
  C 216.41 250.00 222.24 268.69 232.45 301.06
  C 233.68 304.96 235.52 305.59 237.81 308.05
  C 238.11 308.38 237.88 308.91 237.43 308.91
  L 213.93 308.91
  Z
  M 195.75 283.77
  C 195.69 283.99 195.86 284.21 196.08 284.21
  L 210.76 283.98
  C 210.99 283.97 211.15 283.75 211.08 283.53
  L 203.37 259.79
  C 203.26 259.47 202.81 259.48 202.72 259.80
  L 195.75 283.77
  Z"
/>
<path d="
  M 281.91 283.14
  C 285.88 289.27 289.53 295.16 292.87 300.80
  C 294.37 303.35 296.44 305.38 299.07 306.91
  C 299.48 307.14 299.72 307.43 299.79 307.76
  C 299.89 308.22 299.55 308.66 299.08 308.68
  C 298.29 308.71 295.70 308.73 291.32 308.76
  C 280.59 308.83 278.32 304.83 273.72 295.52
  C 272.75 293.56 271.35 290.66 269.52 286.81
  C 268.01 283.66 264.09 283.59 260.81 283.86
  C 260.47 283.89 260.20 284.18 260.20 284.52
  L 260.20 301.53
  C 260.20 302.97 260.92 304.32 262.12 305.13
  L 264.50 306.72
  C 264.74 306.88 264.93 307.09 265.05 307.35
  L 265.23 307.73
  C 265.48 308.26 265.10 308.87 264.52 308.87
  L 241.10 308.87
  C 240.54 308.87 240.27 308.19 240.67 307.80
  L 243.92 304.67
  C 243.99 304.60 244.04 304.52 244.09 304.43
  C 244.74 303.10 245.06 301.55 245.06 299.76
  C 245.07 272.45 245.07 256.94 245.04 253.25
  C 245.03 252.34 244.84 251.09 244.47 249.50
  C 244.35 249.01 244.08 248.58 243.70 248.27
  L 240.89 245.95
  C 240.24 245.41 240.62 244.36 241.47 244.36
  L 276.09 244.61
  C 276.24 244.61 276.40 244.63 276.55 244.68
  C 278.66 245.26 280.82 245.93 283.04 246.69
  C 291.46 249.56 295.51 258.20 294.86 266.77
  C 294.27 274.39 288.81 279.47 282.15 282.35
  C 281.84 282.48 281.73 282.86 281.91 283.14
  Z
  M 260.18 252.56
  L 260.34 276.42
  C 260.35 276.74 260.61 276.99 260.93 276.99
  L 268.77 276.94
  C 274.57 276.90 279.24 272.58 279.20 267.30
  L 279.16 261.40
  C 279.12 256.12 274.39 251.88 268.59 251.92
  L 260.75 251.97
  C 260.43 251.97 260.17 252.24 260.18 252.56
  Z"
/>
<path d="
  M 383.33 267.75
  C 383.24 267.62 383.04 267.69 383.04 267.85
  C 382.93 280.30 382.93 290.60 383.03 298.74
  C 383.06 300.91 383.58 302.92 384.60 304.78
  C 384.78 305.11 385.05 305.39 385.38 305.58
  L 388.03 307.11
  C 388.85 307.58 388.52 308.84 387.57 308.84
  C 378.74 308.83 372.80 308.80 369.75 308.77
  C 369.56 308.77 369.43 308.73 369.36 308.64
  C 369.00 308.26 369.01 307.91 369.40 307.58
  C 371.31 305.96 374.03 303.81 374.11 300.19
  C 374.37 287.21 374.39 271.97 374.16 254.48
  C 374.14 252.98 373.55 251.30 372.38 249.45
  C 372.15 249.08 371.85 248.77 371.50 248.53
  L 368.28 246.32
  C 367.46 245.76 367.87 244.48 368.86 244.48
  C 371.46 244.49 374.98 244.49 379.43 244.49
  C 382.63 244.49 384.35 244.51 384.60 244.55
  C 386.75 244.92 387.62 246.68 388.85 248.45
  C 397.74 261.27 406.07 273.34 413.86 284.67
  C 414.01 284.89 414.35 284.78 414.35 284.51
  C 414.32 270.91 414.30 262.68 414.30 259.82
  C 414.31 253.78 414.49 249.42 409.19 246.34
  C 408.35 245.85 408.69 244.56 409.66 244.56
  L 427.42 244.56
  C 428.12 244.56 428.48 245.40 428.00 245.91
  C 427.45 246.50 426.36 247.57 424.74 249.14
  C 423.34 250.49 422.97 253.68 423.00 255.75
  C 423.34 274.00 423.45 291.52 423.34 308.32
  C 423.33 308.68 423.05 308.96 422.70 308.96
  L 414.68 308.96
  C 414.32 308.96 413.96 308.84 413.68 308.61
  C 412.45 307.64 411.56 306.76 411.00 305.99
  C 401.19 292.29 391.96 279.54 383.33 267.75
  Z"
/>
<path d="
  M 313.75 349.50
  C 313.75 349.50 313.48 349.62 312.95 349.84
  C 312.14 350.18 311.21 349.99 310.60 349.36
  L 302.70 341.17
  C 302.46 340.91 302.47 340.52 302.72 340.27
  C 304.02 339.00 305.86 337.85 308.24 336.81
  C 310.63 335.78 312.73 335.22 314.55 335.13
  C 314.89 335.12 315.19 335.39 315.21 335.74
  L 315.80 347.10
  C 315.85 347.98 315.35 348.79 314.56 349.14
  C 314.03 349.38 313.76 349.50 313.75 349.50
  Z"
/>
<path d="
  M 333.85 340.22
  C 334.18 340.47 334.21 340.96 333.91 341.24
  L 325.52 349.31
  C 325.29 349.53 325.01 349.68 324.70 349.75
  C 323.65 349.98 322.46 349.74 321.14 349.01
  C 320.64 348.74 320.33 348.22 320.33 347.66
  L 320.33 335.97
  C 320.33 335.48 320.75 335.10 321.24 335.15
  C 325.99 335.70 330.19 337.39 333.85 340.22
  Z"
/>
<path d="
  M 343.42 357.43
  C 343.47 357.85 343.14 358.22 342.72 358.21
  L 330.85 357.90
  C 330.52 357.89 330.21 357.80 329.94 357.62
  C 329.01 357.02 328.34 355.99 327.92 354.51
  C 327.76 353.95 327.91 353.35 328.32 352.95
  L 336.81 344.57
  C 337.17 344.22 337.75 344.25 338.06 344.64
  C 341.06 348.48 342.85 352.75 343.42 357.43
  Z"
/>
<path d="
  M 293.83 358.49
  C 293.45 358.49 293.15 358.15 293.21 357.77
  C 293.90 353.09 295.48 348.76 297.97 344.78
  C 298.20 344.41 298.72 344.35 299.03 344.67
  L 307.49 353.45
  C 307.74 353.71 307.86 354.06 307.83 354.42
  C 307.74 355.47 307.36 356.62 306.69 357.87
  C 306.49 358.25 306.09 358.49 305.66 358.49
  L 293.83 358.49
  Z"
/>
<path d="
  M 323.85 360.02
  C 323.85 363.16 321.30 365.71 318.16 365.71
  C 315.02 365.71 312.47 363.16 312.47 360.02
  C 312.47 356.88 315.02 354.33 318.16 354.33
  C 321.30 354.33 323.85 356.88 323.85 360.02
  Z"
/>
<path d="
  M 293.80 363.64
  C 293.75 363.25 294.05 362.90 294.44 362.90
  L 305.55 362.93
  C 305.85 362.93 306.15 363.02 306.40 363.18
  C 307.28 363.71 307.93 364.67 308.35 366.05
  C 308.52 366.56 308.39 367.12 308.01 367.51
  L 300.26 375.53
  C 299.93 375.87 299.39 375.85 299.09 375.49
  C 296.20 371.96 294.44 368.01 293.80 363.64
  Z"
/>
<path d="
  M 341.16 369.82
  C 340.16 372.18 339.00 374.12 337.68 375.65
  C 337.51 375.85 337.20 375.86 337.02 375.67
  L 328.81 367.42
  C 328.42 367.02 328.15 366.52 328.03 365.97
  C 328.01 365.86 328.19 365.36 328.57 364.46
  C 328.95 363.57 329.19 363.09 329.28 363.03
  C 329.76 362.73 330.31 362.58 330.87 362.59
  L 342.50 362.78
  C 342.77 362.78 342.97 363.01 342.95 363.27
  C 342.76 365.27 342.17 367.46 341.16 369.82
  Z"
/>
<path d="
  M 333.25 379.40
  C 329.72 382.08 325.69 383.66 321.14 384.14
  C 320.67 384.19 320.27 383.82 320.27 383.35
  L 320.38 372.16
  C 320.39 371.62 320.69 371.13 321.17 370.88
  C 322.44 370.19 323.58 369.97 324.58 370.20
  C 324.88 370.27 325.15 370.41 325.36 370.63
  L 333.32 378.43
  C 333.60 378.70 333.57 379.17 333.25 379.40
  Z"
/>
<path d="
  M 303.44 379.58
  C 303.14 379.35 303.11 378.91 303.38 378.65
  L 310.95 371.17
  C 311.16 370.96 311.42 370.82 311.70 370.76
  C 312.66 370.53 313.74 370.74 314.96 371.39
  C 315.42 371.63 315.71 372.10 315.72 372.62
  L 315.86 383.31
  C 315.86 383.76 315.48 384.11 315.04 384.07
  C 310.69 383.62 306.82 382.12 303.44 379.58
  Z"
/>
</g>
<g fill="#cc9a34">
<path d="
  M 260.85 56.30
  L 258.83 57.55
  C 258.09 58.01 258.35 59.14 259.21 59.23
  C 263.58 59.70 265.50 61.94 264.97 65.95
  C 264.20 71.76 257.08 73.13 252.34 71.92
  C 248.35 70.89 245.79 68.66 244.67 65.21
  C 242.05 57.12 246.27 47.20 253.81 43.25
  C 263.62 38.12 272.81 39.05 281.37 46.02
  C 287.24 50.80 287.62 57.95 286.93 64.78
  C 286.89 65.20 287.26 65.54 287.68 65.46
  C 297.12 63.46 306.25 67.70 308.95 77.14
  C 310.04 80.95 310.36 84.54 309.93 87.90
  C 309.86 88.48 309.36 88.91 308.78 88.91
  L 295.58 88.91
  C 295.26 88.91 294.96 88.73 294.81 88.45
  C 294.70 88.25 294.15 87.21 293.15 85.33
  C 289.55 78.54 283.66 80.23 278.60 83.85
  C 273.82 87.28 269.80 89.85 264.47 90.90
  C 257.17 92.33 250.89 90.73 245.63 86.09
  C 245.17 85.69 244.51 85.62 243.98 85.91
  C 231.67 92.77 216.37 85.82 214.97 71.33
  C 214.93 70.91 215.26 70.56 215.68 70.57
  C 217.89 70.62 219.52 69.90 220.57 68.43
  C 221.97 66.48 219.36 63.79 218.08 62.94
  C 214.58 60.58 208.66 67.93 205.99 70.77
  C 200.42 76.68 190.54 78.87 183.48 74.22
  C 180.30 72.13 177.03 68.41 176.69 64.51
  C 176.63 63.79 177.39 63.29 178.02 63.63
  C 180.21 64.80 182.26 65.69 184.17 66.30
  C 194.79 69.71 198.82 56.49 205.73 50.53
  C 211.36 45.68 218.12 44.58 226.03 47.24
  C 229.96 48.56 232.93 50.75 234.94 53.81
  C 237.66 57.96 237.47 63.52 239.94 67.61
  C 244.17 74.60 251.16 77.81 259.11 76.34
  C 262.01 75.81 264.90 74.21 267.78 71.56
  C 273.10 66.67 272.22 58.26 264.93 55.82
  C 263.57 55.37 262.07 55.55 260.85 56.30
  Z"
/>
<path d="
  M 238.53 205.62
  C 231.06 206.31 224.20 205.90 217.93 204.40
  C 216.20 203.99 214.73 203.01 213.52 201.47
  C 211.71 199.17 209.25 197.68 206.98 198.92
  C 204.35 200.35 203.18 202.60 203.45 205.65
  C 203.73 208.83 205.49 210.61 208.72 210.98
  C 218.00 212.05 227.53 212.80 237.31 213.23
  C 233.98 222.62 227.81 229.08 218.80 232.59
  C 215.81 233.76 212.16 234.36 207.87 234.39
  C 199.34 234.44 191.69 230.49 185.85 224.60
  C 178.72 217.41 176.09 205.94 178.34 196.26
  C 181.02 184.68 189.22 176.41 200.55 173.48
  C 220.84 168.24 241.34 184.05 238.53 205.62
  Z
  M 205.18 180.69
  C 202.07 180.99 198.69 182.32 195.06 184.68
  C 194.48 185.05 194.36 185.85 194.80 186.38
  L 201.65 194.59
  C 201.87 194.86 202.21 195.02 202.56 195.02
  C 203.79 195.02 204.84 194.50 205.72 193.46
  C 205.88 193.27 205.97 193.03 205.97 192.78
  L 205.97 181.41
  C 205.97 180.98 205.60 180.65 205.18 180.69
  Z
  M 211.35 180.68
  C 210.98 180.63 210.64 180.92 210.64 181.29
  L 210.66 191.91
  C 210.66 192.20 210.74 192.48 210.90 192.73
  C 211.41 193.57 212.32 194.19 213.64 194.59
  C 214.13 194.75 214.67 194.63 215.04 194.27
  L 222.71 186.86
  C 223.03 186.55 223.01 186.03 222.67 185.74
  C 219.30 182.98 215.52 181.29 211.35 180.68
  Z
  M 186.11 201.83
  L 197.17 202.24
  C 197.57 202.26 197.95 202.05 198.16 201.70
  C 198.82 200.56 199.22 199.50 199.34 198.52
  C 199.39 198.18 199.28 197.85 199.06 197.60
  L 191.46 189.09
  C 191.19 188.78 190.70 188.82 190.47 189.15
  C 188.00 192.79 186.36 196.78 185.56 201.13
  C 185.49 201.48 185.75 201.81 186.11 201.83
  Z
  M 226.64 190.00
  C 226.42 189.70 226.00 189.67 225.74 189.92
  L 218.41 197.17
  C 218.21 197.36 218.07 197.61 218.00 197.88
  C 217.77 198.81 217.96 199.86 218.58 201.05
  C 218.81 201.50 219.26 201.78 219.75 201.79
  L 230.10 202.06
  C 230.53 202.07 230.88 201.70 230.84 201.27
  C 230.46 197.06 229.06 193.30 226.64 190.00
  Z
  M 186.30 207.17
  C 185.99 207.21 185.78 207.51 185.84 207.82
  C 186.97 213.99 190.01 218.79 194.94 222.20
  C 195.41 222.52 196.05 222.37 196.33 221.88
  L 200.85 214.05
  C 201.10 213.62 201.10 213.10 200.85 212.67
  L 198.26 208.25
  C 198.11 208.00 197.95 207.76 197.78 207.52
  C 197.50 207.19 196.42 207.00 194.55 206.94
  C 191.06 206.82 188.31 206.90 186.30 207.17
  Z
  M 226.81 216.97
  L 217.51 215.96
  C 217.23 215.93 217.04 216.23 217.19 216.47
  L 220.52 221.86
  C 220.85 222.38 221.53 222.54 222.06 222.22
  C 223.95 221.05 225.60 219.47 227.03 217.47
  C 227.17 217.27 227.05 217.00 226.81 216.97
  Z
  M 200.64 225.34
  C 205.83 226.93 210.81 227.02 215.58 225.62
  C 216.18 225.44 216.45 224.74 216.12 224.21
  L 212.14 217.77
  C 211.66 217.00 210.85 216.49 209.94 216.39
  L 206.12 215.98
  C 205.51 215.91 204.91 216.21 204.59 216.75
  L 200.23 224.31
  C 200.00 224.70 200.20 225.21 200.64 225.34
  Z"
/>
<path d="
  M 316.82 218.37
  C 316.82 226.95 309.87 233.90 301.29 233.90
  C 292.71 233.90 285.76 226.95 285.76 218.37
  C 285.76 209.79 292.71 202.84 301.29 202.84
  C 309.87 202.84 316.82 209.79 316.82 218.37
  Z
  M 308.86 217.84
  C 308.86 213.69 305.49 210.32 301.34 210.32
  C 297.19 210.32 293.82 213.69 293.82 217.84
  C 293.82 221.99 297.19 225.36 301.34 225.36
  C 305.49 225.36 308.86 221.99 308.86 217.84
  Z"
/>
<path d="
  M 343.35 332.97
  C 348.16 337.41 351.49 342.88 353.35 349.38
  C 359.54 371.09 346.22 393.94 323.20 396.16
  C 312.94 397.15 303.66 394.56 295.35 388.41
  C 280.08 377.10 276.87 353.92 288.06 338.65
  C 301.31 320.56 326.82 317.69 343.35 332.97
  Z
  M 308.24 336.81
  C 305.86 337.85 304.02 339.00 302.72 340.27
  C 302.47 340.52 302.46 340.91 302.70 341.17
  L 310.60 349.36
  C 311.21 349.99 312.14 350.18 312.95 349.84
  C 313.48 349.62 313.75 349.50 313.75 349.50
  C 313.76 349.50 314.03 349.38 314.56 349.14
  C 315.35 348.79 315.85 347.98 315.80 347.10
  L 315.21 335.74
  C 315.19 335.39 314.89 335.12 314.55 335.13
  C 312.73 335.22 310.63 335.78 308.24 336.81
  Z
  M 333.85 340.22
  C 330.19 337.39 325.99 335.70 321.24 335.15
  C 320.75 335.10 320.33 335.48 320.33 335.97
  L 320.33 347.66
  C 320.33 348.22 320.64 348.74 321.14 349.01
  C 322.46 349.74 323.65 349.98 324.70 349.75
  C 325.01 349.68 325.29 349.53 325.52 349.31
  L 333.91 341.24
  C 334.21 340.96 334.18 340.47 333.85 340.22
  Z
  M 343.42 357.43
  C 342.85 352.75 341.06 348.48 338.06 344.64
  C 337.75 344.25 337.17 344.22 336.81 344.57
  L 328.32 352.95
  C 327.91 353.35 327.76 353.95 327.92 354.51
  C 328.34 355.99 329.01 357.02 329.94 357.62
  C 330.21 357.80 330.52 357.89 330.85 357.90
  L 342.72 358.21
  C 343.14 358.22 343.47 357.85 343.42 357.43
  Z
  M 293.83 358.49
  L 305.66 358.49
  C 306.09 358.49 306.49 358.25 306.69 357.87
  C 307.36 356.62 307.74 355.47 307.83 354.42
  C 307.86 354.06 307.74 353.71 307.49 353.45
  L 299.03 344.67
  C 298.72 344.35 298.20 344.41 297.97 344.78
  C 295.48 348.76 293.90 353.09 293.21 357.77
  C 293.15 358.15 293.45 358.49 293.83 358.49
  Z
  M 323.85 360.02
  C 323.85 356.88 321.30 354.33 318.16 354.33
  C 315.02 354.33 312.47 356.88 312.47 360.02
  C 312.47 363.16 315.02 365.71 318.16 365.71
  C 321.30 365.71 323.85 363.16 323.85 360.02
  Z
  M 293.80 363.64
  C 294.44 368.01 296.20 371.96 299.09 375.49
  C 299.39 375.85 299.93 375.87 300.26 375.53
  L 308.01 367.51
  C 308.39 367.12 308.52 366.56 308.35 366.05
  C 307.93 364.67 307.28 363.71 306.40 363.18
  C 306.15 363.02 305.85 362.93 305.55 362.93
  L 294.44 362.90
  C 294.05 362.90 293.75 363.25 293.80 363.64
  Z
  M 328.57 364.46
  C 328.19 365.36 328.01 365.86 328.03 365.97
  C 328.15 366.52 328.42 367.02 328.81 367.42
  L 337.02 375.67
  C 337.20 375.86 337.51 375.85 337.68 375.65
  C 339.00 374.12 340.16 372.18 341.16 369.82
  C 342.17 367.46 342.76 365.27 342.95 363.27
  C 342.97 363.01 342.77 362.78 342.50 362.78
  L 330.87 362.59
  C 330.31 362.58 329.76 362.73 329.28 363.03
  C 329.19 363.09 328.95 363.57 328.57 364.46
  Z
  M 333.25 379.40
  C 333.57 379.17 333.60 378.70 333.32 378.43
  L 325.36 370.63
  C 325.15 370.41 324.88 370.27 324.58 370.20
  C 323.58 369.97 322.44 370.19 321.17 370.88
  C 320.69 371.13 320.39 371.62 320.38 372.16
  L 320.27 383.35
  C 320.27 383.82 320.67 384.19 321.14 384.14
  C 325.69 383.66 329.72 382.08 333.25 379.40
  Z
  M 303.44 379.58
  C 306.82 382.12 310.69 383.62 315.04 384.07
  C 315.48 384.11 315.86 383.76 315.86 383.31
  L 315.72 372.62
  C 315.71 372.10 315.42 371.63 314.96 371.39
  C 313.74 370.74 312.66 370.53 311.70 370.76
  C 311.42 370.82 311.16 370.96 310.95 371.17
  L 303.38 378.65
  C 303.11 378.91 303.14 379.35 303.44 379.58
  Z"
/>
<path d="
  M 120.69 333.75
  C 120.41 333.76 120.18 334.00 120.18 334.28
  C 120.17 334.33 120.16 349.48 120.15 379.75
  C 120.15 383.62 121.02 386.04 123.90 388.06
  C 124.79 388.69 125.44 389.35 125.84 390.06
  C 126.12 390.56 125.76 391.18 125.19 391.18
  L 100.14 391.18
  C 98.82 391.18 98.43 389.38 99.63 388.83
  C 105.90 385.95 105.20 381.16 105.21 375.05
  C 105.24 358.42 105.23 344.77 105.20 334.12
  C 105.20 333.79 104.96 333.51 104.63 333.46
  C 95.85 332.32 88.51 335.44 85.24 343.70
  C 84.99 344.35 84.25 344.66 83.60 344.40
  L 83.38 344.31
  C 82.84 344.08 82.54 343.51 82.66 342.94
  L 86.46 324.76
  C 86.60 324.08 87.31 323.67 87.97 323.90
  C 89.46 324.42 91.13 324.68 93.00 324.69
  C 106.09 324.72 119.57 324.71 133.45 324.64
  C 133.60 324.64 133.74 324.63 133.89 324.60
  L 137.51 323.98
  C 137.90 323.91 138.28 324.16 138.36 324.55
  C 139.61 330.01 140.77 335.65 141.84 341.46
  C 142.00 342.32 142.04 342.99 141.96 343.46
  C 141.75 344.70 140.10 345.00 139.47 343.91
  C 138.20 341.68 137.15 340.03 136.34 338.96
  C 132.56 333.98 126.64 333.56 120.69 333.75
  Z"
/>
<path d="
  M 202.56 373.83
  L 205.44 376.82
  C 206.08 377.49 206.15 378.53 205.61 379.28
  C 196.56 391.82 181.79 395.87 167.56 391.41
  C 156.29 387.87 147.54 376.62 145.25 365.55
  C 143.59 357.54 144.90 348.93 149.28 341.43
  C 154.43 332.61 163.35 324.86 173.90 323.90
  C 182.06 323.15 189.55 324.23 196.36 327.13
  C 196.69 327.27 197.06 327.24 197.35 327.06
  L 201.23 324.66
  C 201.93 324.23 202.84 324.72 202.85 325.55
  C 202.94 334.06 202.95 341.00 202.88 346.36
  C 202.87 347.21 202.16 347.87 201.35 347.77
  C 200.85 347.71 200.41 347.36 200.03 346.71
  C 196.00 339.76 191.76 332.37 184.23 331.79
  C 181.18 331.55 178.53 331.71 176.28 332.28
  C 170.40 333.77 166.11 339.47 163.77 344.97
  C 160.96 351.57 161.15 361.38 162.90 368.09
  C 164.62 374.67 169.56 380.14 176.08 382.33
  C 185.67 385.55 194.19 381.76 200.26 373.95
  C 200.83 373.22 201.92 373.16 202.56 373.83
  Z"
/>
<path d="
  M 231.67 360.97
  C 231.62 373.97 231.65 381.29 231.78 382.94
  C 231.96 385.25 233.12 387.05 235.27 388.33
  C 235.97 388.75 236.33 389.50 236.38 390.32
  C 236.41 390.79 236.04 391.18 235.57 391.18
  L 212.17 391.18
  C 211.43 391.18 211.04 390.31 211.52 389.76
  C 212.14 389.05 212.84 388.42 213.62 387.87
  C 215.95 386.22 216.46 384.00 216.45 381.01
  C 216.42 365.74 216.41 350.25 216.40 334.53
  C 216.39 330.22 214.80 329.37 211.92 326.99
  C 211.64 326.76 211.48 326.39 211.43 325.90
  C 211.40 325.52 211.70 325.20 212.08 325.20
  L 235.64 325.20
  C 236.26 325.20 236.59 325.92 236.19 326.39
  C 235.45 327.28 234.77 327.97 234.16 328.47
  C 232.26 330.02 231.72 332.35 231.70 334.50
  C 231.64 345.29 231.61 350.91 231.61 351.35
  C 231.60 351.63 231.83 351.86 232.12 351.86
  L 254.15 351.86
  C 254.46 351.86 254.72 351.61 254.73 351.30
  C 254.87 345.33 254.84 339.83 254.64 334.82
  C 254.45 330.37 253.01 329.30 249.68 326.85
  C 249.24 326.52 249.15 325.90 249.50 325.49
  C 249.68 325.28 249.93 325.18 250.25 325.19
  C 260.20 325.21 268.04 325.21 273.76 325.19
  C 274.48 325.19 274.82 326.07 274.29 326.56
  C 272.08 328.57 269.88 330.46 269.82 333.76
  C 269.66 341.47 269.65 357.71 269.78 382.48
  C 269.80 385.93 272.57 387.39 274.77 389.63
  C 275.33 390.20 274.92 391.17 274.12 391.17
  L 250.23 391.17
  C 249.31 391.17 248.88 390.02 249.58 389.42
  C 252.30 387.09 254.54 386.51 254.74 382.23
  C 254.83 380.37 254.85 373.25 254.78 360.88
  C 254.77 360.51 254.48 360.22 254.11 360.22
  L 232.43 360.22
  C 232.01 360.22 231.68 360.55 231.67 360.97
  Z"
/>
<path d="
  M 401.90 325.09
  L 421.27 325.09
  C 421.87 325.09 422.27 325.70 422.05 326.25
  C 422.00 326.39 421.91 326.55 421.79 326.73
  C 421.61 327.02 421.39 327.24 421.13 327.37
  C 418.35 328.81 416.93 331.52 416.88 335.51
  C 416.83 338.78 416.92 347.94 417.14 362.99
  C 417.25 369.92 416.84 374.71 415.93 377.36
  C 413.16 385.43 405.83 391.44 397.18 392.73
  C 383.48 394.77 369.46 390.57 365.02 376.05
  C 364.85 375.48 364.76 374.89 364.75 374.30
  C 364.67 367.02 364.65 355.09 364.70 338.51
  C 364.72 332.78 364.35 329.80 360.04 326.79
  C 359.34 326.30 359.69 325.20 360.54 325.20
  L 383.50 325.20
  C 384.24 325.20 384.60 326.09 384.07 326.60
  L 380.98 329.58
  C 380.93 329.63 380.89 329.68 380.86 329.75
  C 380.13 331.29 379.76 332.87 379.75 334.50
  C 379.65 346.15 379.68 357.14 379.83 367.49
  C 379.89 371.79 380.62 375.28 382.02 377.97
  C 385.65 384.92 392.37 384.70 398.98 383.25
  C 404.85 381.97 406.89 374.31 406.92 368.96
  C 406.99 351.06 406.96 339.24 406.81 333.51
  C 406.75 331.12 405.31 329.11 402.50 327.49
  C 402.42 327.44 402.35 327.37 402.30 327.29
  L 401.45 325.91
  C 401.23 325.55 401.48 325.09 401.90 325.09
  Z"
/>
</g>
<g fill="#3ca2a4">
<path d="
  M 119.67 227.65
  C 119.39 227.43 119.57 226.97 119.93 227.01
  C 129.19 228.12 135.01 224.90 143.00 221.81
  C 152.29 218.22 161.42 218.91 170.38 223.88
  C 172.01 224.79 174.60 226.43 178.17 228.82
  C 178.23 228.86 178.29 228.89 178.35 228.91
  L 182.31 230.32
  C 182.49 230.39 182.48 230.64 182.30 230.70
  C 175.23 233.09 166.95 230.80 159.69 228.59
  C 156.38 227.57 153.69 228.04 150.03 228.98
  C 138.65 231.90 128.49 234.60 119.67 227.65
  Z"
/>
<path d="
  M 235.99 230.24
  C 238.08 229.45 240.42 228.19 243.03 226.47
  C 248.45 222.88 253.96 221.74 260.19 222.66
  C 266.45 223.58 271.45 228.19 277.59 229.73
  C 277.97 229.83 278.02 230.34 277.67 230.51
  C 272.92 232.88 269.38 232.41 263.81 231.23
  C 259.37 230.29 255.20 230.68 249.86 231.75
  C 245.89 232.55 239.75 233.13 235.93 230.85
  C 235.69 230.70 235.72 230.34 235.99 230.24
  Z"
/>
<path d="
  M 117.20 408.05
  C 117.02 407.88 117.14 407.58 117.39 407.58
  C 122.18 407.55 127.09 406.89 132.10 405.61
  C 137.53 404.22 141.41 403.37 143.74 403.07
  C 149.12 402.36 154.73 402.92 160.56 404.74
  C 162.04 405.21 165.53 406.34 171.03 408.15
  C 180.03 411.12 187.11 408.81 195.40 405.58
  C 198.39 404.41 200.78 403.76 202.59 403.64
  C 208.99 403.19 213.38 403.24 215.76 403.79
  C 219.56 404.67 224.30 406.07 229.99 407.99
  C 239.27 411.12 244.28 408.63 254.07 405.38
  C 263.16 402.36 272.17 402.54 281.08 405.93
  C 284.10 407.08 286.24 407.85 287.51 408.25
  C 296.81 411.19 304.25 408.85 312.90 405.34
  C 317.90 403.32 323.03 403.07 328.20 403.42
  C 332.88 403.73 338.55 405.78 342.83 407.19
  C 349.47 409.38 356.96 409.42 363.70 407.58
  C 371.40 405.48 377.85 404.59 385.55 407.79
  C 385.99 407.97 385.88 408.63 385.40 408.65
  C 378.30 408.95 370.28 413.67 364.31 415.76
  C 357.88 418.01 351.38 418.56 344.81 417.41
  C 343.36 417.15 340.68 416.50 336.77 415.47
  C 329.68 413.60 323.01 413.25 317.04 415.31
  C 311.83 417.10 308.58 418.17 307.27 418.51
  C 301.46 420.00 295.59 420.39 289.66 419.67
  C 285.23 419.14 279.99 416.84 275.70 415.31
  C 267.74 412.47 260.07 414.32 251.96 417.56
  C 245.12 420.30 236.94 420.59 230.22 419.31
  C 224.89 418.28 218.30 414.77 213.21 414.22
  C 204.54 413.28 198.54 416.12 190.55 418.76
  C 179.22 422.50 169.37 419.83 158.63 415.36
  C 150.81 412.11 140.70 413.39 132.78 413.37
  C 127.94 413.36 120.80 411.48 117.20 408.05
  Z"
/>
<path d="
  M 181.13 431.80
  L 189.26 431.80
  C 189.59 431.80 189.93 431.78 190.26 431.73
  C 193.51 431.30 197.54 430.29 202.34 428.70
  C 211.04 425.81 218.50 426.05 226.95 429.50
  C 232.20 431.65 238.48 433.25 242.69 432.38
  C 246.32 431.63 249.99 430.58 253.69 429.23
  C 259.68 427.04 265.96 426.52 272.52 427.67
  C 273.77 427.89 277.78 429.06 284.56 431.19
  C 285.50 431.48 287.86 431.90 291.65 432.45
  C 297.62 433.31 305.48 431.66 309.51 431.01
  C 312.86 430.47 315.94 430.84 318.76 432.11
  C 319.17 432.29 319.09 432.89 318.65 432.97
  L 314.12 433.74
  C 313.39 433.87 312.68 434.08 312.00 434.37
  C 302.22 438.54 293.86 442.31 284.52 440.92
  C 282.49 440.62 278.92 439.79 273.79 438.44
  C 268.34 437.01 262.91 437.20 257.49 439.02
  C 254.15 440.14 250.79 441.77 247.71 442.43
  C 239.88 444.13 232.51 443.53 225.62 440.62
  C 218.99 437.83 213.91 436.22 208.51 437.01
  C 197.69 438.59 189.71 438.22 180.88 432.70
  C 180.47 432.44 180.64 431.80 181.13 431.80
  Z"
/>
</g>
</svg>
